<?xml version="1.0" encoding="utf-8" ?><svg xmlns="http://www.w3.org/2000/svg" xmlns:xlink="http://www.w3.org/1999/xlink" width="1024" height="1024" viewBox="0 0 1024 1024"><defs><linearGradient id="gradient_0" gradientUnits="userSpaceOnUse" x1="680.76337" y1="496.55457" x2="674.46558" y2="396.77814"><stop offset="0" stop-color="#0042C8"/><stop offset="1" stop-color="#0768F2"/></linearGradient></defs><path fill="url(#gradient_0)" d="M685.996 486.949L686.064 429.81C686.056 422.983 685.074 410.49 686.439 404.208C686.805 402.525 688.042 400.988 689.582 400.185C692.1 398.87 742.427 398.997 746.684 400.3C748.017 401.933 748.605 403.286 748.931 405.382C749.519 409.153 749.864 421.348 747.262 424.122C744.242 427.341 719.538 425.99 713.93 425.971L713.794 431.201C720.361 431.456 739.312 429.803 743.036 433.477C744.68 437.271 745.788 455.518 740.21 457.33C735.215 458.952 716.868 455.707 713.331 458.071C713.437 460.095 713.536 461.777 713.473 463.799C719.265 463.826 743.595 463.22 747.398 464.852C750.976 469.192 751.505 488.486 746.333 493.322C741.331 494.371 691.196 494.81 688.751 493.369C687.902 492.868 687.403 492.334 686.79 491.585L686.668 490.368C685.256 490.952 683.388 493.525 682.749 493.651C678.127 494.558 672.872 493.883 668.149 494.053C664.209 494.028 659.177 494.469 656.873 491.554C650.694 483.734 645.284 468.095 639.215 460.57C637.292 470.316 640.008 487.501 635.896 492.818C632.301 494.803 627.333 493.866 623.27 493.95C618.8 494.043 614.574 495.081 611.218 491.579C609.713 487.772 609.946 406.535 611.652 401.941C619.094 397.561 651.26 399.298 660.494 401.09C686.328 406.102 690.519 444.053 667.568 455.747C671.229 461.861 683.645 481.491 685.996 486.949ZM638.428 438.39C643.631 438.333 649.446 439.195 653.94 436.161C655.009 434.447 656.269 432.34 656.045 430.223C655.91 428.95 655.078 427.891 654.026 427.224C649.942 424.637 642.798 425.396 638.031 425.417C638.118 429.738 638.128 434.077 638.428 438.39Z"/><defs><linearGradient id="gradient_1" gradientUnits="userSpaceOnUse" x1="729.13611" y1="451.45959" x2="677.24878" y2="419.80191"><stop offset="0" stop-color="#0044D1"/><stop offset="1" stop-color="#126FF5"/></linearGradient></defs><path fill="url(#gradient_1)" d="M685.996 486.949L686.064 429.81C686.056 422.983 685.074 410.49 686.439 404.208C686.805 402.525 688.042 400.988 689.582 400.185C692.1 398.87 742.427 398.997 746.684 400.3C748.017 401.933 748.605 403.286 748.931 405.382C749.519 409.153 749.864 421.348 747.262 424.122C744.242 427.341 719.538 425.99 713.93 425.971L713.794 431.201C720.361 431.456 739.312 429.803 743.036 433.477C744.68 437.271 745.788 455.518 740.21 457.33C735.215 458.952 716.868 455.707 713.331 458.071L712.511 458.528C712.176 461.775 712.36 462.852 711.118 465.917C710.586 463.005 711.085 460.767 710.052 458.169L709.826 463.452C709.856 465.152 709.622 465.949 710.36 467.309C717.929 467.623 737.859 467.756 745.079 467.141C745.215 473.778 745.225 480.416 745.109 487.052L711.285 487.03C705.887 487.02 694.991 486.747 690.054 487.624L688.996 488.125C687.515 487.855 687.101 487.945 685.996 486.949Z"/><path fill="#91E1FE" d="M692.55 404.831L743.38 404.94C743.56 408.936 743.475 413.601 743.501 417.649C738.622 417.643 711.687 416.887 708.971 419.195C708.119 422.209 708.247 426.108 707.992 429.425C708.892 431.882 708.917 433.172 709.036 435.741L709.586 436.063L709.931 434.717L710.298 434.62C713.635 434.235 713.137 434.285 713.794 431.201C720.361 431.456 739.312 429.803 743.036 433.477C744.68 437.271 745.788 455.518 740.21 457.33C735.215 458.952 716.868 455.707 713.331 458.071L712.511 458.528C712.176 461.775 712.36 462.852 711.118 465.917C710.586 463.005 711.085 460.767 710.052 458.169L709.826 463.452C709.531 464.716 709.561 464.408 708.846 465.581L708.4 465.304C708.538 463.241 708.547 462.997 708.19 460.938L708.104 460.462C707.939 458.219 708.043 454.308 708.03 451.938L707.639 452.887C705.377 454.341 694.624 453.264 692.471 450.494L692.55 404.831Z"/><defs><linearGradient id="gradient_2" gradientUnits="userSpaceOnUse" x1="728.3996" y1="463.50681" x2="723.6861" y2="430.61209"><stop offset="0" stop-color="#0031BC"/><stop offset="1" stop-color="#0A6CF1"/></linearGradient></defs><path fill="url(#gradient_2)" d="M707.992 429.425C708.892 431.882 708.917 433.172 709.036 435.741L709.586 436.063L709.931 434.717L710.298 434.62C713.635 434.235 713.137 434.285 713.794 431.201C720.361 431.456 739.312 429.803 743.036 433.477C744.68 437.271 745.788 455.518 740.21 457.33C735.215 458.952 716.868 455.707 713.331 458.071L712.511 458.528C712.176 461.775 712.36 462.852 711.118 465.917C710.586 463.005 711.085 460.767 710.052 458.169L709.826 463.452C709.531 464.716 709.561 464.408 708.846 465.581L708.4 465.304C708.538 463.241 708.547 462.997 708.19 460.938L708.104 460.462C707.939 458.219 708.043 454.308 708.03 451.938C708.176 451.686 708.289 451.411 708.469 451.181C710.795 448.205 733.174 448.942 737.933 448.887C737.812 445.075 738.155 440.32 735.542 437.514C731.795 436.182 713.083 436.846 707.748 436.738C707.709 434.237 707.554 431.881 707.992 429.425Z"/><path fill="#D3EFFA" d="M707.992 429.425C708.892 431.882 708.917 433.172 709.036 435.741L709.586 436.063L709.931 434.717L710.298 434.62C716.789 435.689 731.856 434.222 739.979 434.975L740.021 451.43C729.973 451.266 719.923 451.251 709.875 451.385C709.916 453.075 709.888 456.639 710.052 458.169L709.826 463.452C709.531 464.716 709.561 464.408 708.846 465.581L708.4 465.304C708.538 463.241 708.547 462.997 708.19 460.938L708.104 460.462C707.939 458.219 708.043 454.308 708.03 451.938C708.176 451.686 708.289 451.411 708.469 451.181C710.795 448.205 733.174 448.942 737.933 448.887C737.812 445.075 738.155 440.32 735.542 437.514C731.795 436.182 713.083 436.846 707.748 436.738C707.709 434.237 707.554 431.881 707.992 429.425Z"/><defs><linearGradient id="gradient_3" gradientUnits="userSpaceOnUse" x1="717.97009" y1="485.32819" x2="716.0155" y2="450.70087"><stop offset="0" stop-color="#30B1FF"/><stop offset="1" stop-color="#71D4FF"/></linearGradient></defs><path fill="url(#gradient_3)" d="M692.471 450.494C694.624 453.264 705.377 454.341 707.639 452.887L708.03 451.938C708.043 454.308 707.939 458.219 708.104 460.462L707.998 469.572C719.283 469.254 731.656 469.456 743.019 469.423C743.269 475.168 743.28 479.35 743.064 485.098C726.411 485.12 709.125 485.373 692.521 485.013C692.437 473.507 692.42 462 692.471 450.494Z"/><path fill="#DCF1FB" d="M690.046 402.95L745.003 402.883C745.178 408.897 745.241 413.905 745.039 419.927C734.046 419.757 720.602 420.371 709.911 419.533C709.892 424.594 709.898 429.656 709.931 434.717L709.586 436.063L709.036 435.741C708.917 433.172 708.892 431.882 707.992 429.425C708.247 426.108 708.119 422.209 708.971 419.195C711.687 416.887 738.622 417.643 743.501 417.649C743.475 413.601 743.56 408.936 743.38 404.94L692.55 404.831L692.471 450.494C692.42 462 692.437 473.507 692.521 485.013C709.125 485.373 726.411 485.12 743.064 485.098C743.28 479.35 743.269 475.168 743.019 469.423C731.656 469.456 719.283 469.254 707.998 469.572L708.104 460.462L708.19 460.938C708.547 462.997 708.538 463.241 708.4 465.304L708.846 465.581C709.561 464.408 709.531 464.716 709.826 463.452C709.856 465.152 709.622 465.949 710.36 467.309C717.929 467.623 737.859 467.756 745.079 467.141C745.215 473.778 745.225 480.416 745.109 487.052L711.285 487.03C705.887 487.02 694.991 486.747 690.054 487.624C689.444 460.237 690.01 430.56 690.046 402.95Z"/><path fill="#91E1FE" d="M614.527 402.989C628.827 402.913 645.469 401.891 659.42 404.229C677.746 407.301 684.538 430.819 672.88 444.227C669.449 448.173 666.215 449.647 661.663 452.102C667.882 463.683 675.238 475.632 682.04 486.961C674.689 487.042 667.338 487.081 659.987 487.079C654.274 475.883 648.204 465.664 642.646 454.224C639.361 454.47 637.274 454.565 633.978 454.486C634.243 465.427 633.888 476.308 634.057 487.204C627.609 487.048 621.158 487.051 614.71 487.212C614.351 485.038 614.484 481.467 614.503 479.184C614.723 453.826 613.995 428.331 614.527 402.989ZM638.428 438.39C643.631 438.333 649.446 439.195 653.94 436.161C655.009 434.447 656.269 432.34 656.045 430.223C655.91 428.95 655.078 427.891 654.026 427.224C649.942 424.637 642.798 425.396 638.031 425.417C638.118 429.738 638.128 434.077 638.428 438.39Z"/><path fill="#50C2FE" d="M616.548 455.632L617.231 450.786C620.882 452.097 627.27 453.524 631.163 453.594L631.96 452.614C635.798 452.821 639.638 453.009 643.479 453.177C645.488 455.819 646.816 457.555 648.504 460.424L648.893 458.671C651.71 457.732 659.218 456.474 662.11 457.427C661.094 455.051 660.15 453.391 660.034 450.825L661.663 452.102C667.882 463.683 675.238 475.632 682.04 486.961C674.689 487.042 667.338 487.081 659.987 487.079C654.274 475.883 648.204 465.664 642.646 454.224C639.361 454.47 637.274 454.565 633.978 454.486C634.243 465.427 633.888 476.308 634.057 487.204C627.609 487.048 621.158 487.051 614.71 487.212C615.508 484.172 615.179 480.757 616.568 478.519C617.037 474.253 616.596 460.578 616.548 455.632Z"/><defs><linearGradient id="gradient_4" gradientUnits="userSpaceOnUse" x1="620.98248" y1="484.51324" x2="627.48083" y2="453.08252"><stop offset="0" stop-color="#34B3FF"/><stop offset="1" stop-color="#7AD8FF"/></linearGradient></defs><path fill="url(#gradient_4)" d="M616.548 455.632L617.231 450.786C620.882 452.097 627.27 453.524 631.163 453.594L631.96 452.614C632.239 463.554 632.088 474.069 631.992 484.997L616.865 485.272L616.568 478.519C617.037 474.253 616.596 460.578 616.548 455.632Z"/><path fill="#E9F9FD" d="M660.034 450.825L661.663 452.102C667.882 463.683 675.238 475.632 682.04 486.961C674.689 487.042 667.338 487.081 659.987 487.079C654.274 475.883 648.204 465.664 642.646 454.224C639.361 454.47 637.274 454.565 633.978 454.486C634.243 465.427 633.888 476.308 634.057 487.204C627.609 487.048 621.158 487.051 614.71 487.212C615.508 484.172 615.179 480.757 616.568 478.519L616.865 485.272L631.992 484.997C632.088 474.069 632.239 463.554 631.96 452.614C635.798 452.821 639.638 453.009 643.479 453.177C645.488 455.819 646.816 457.555 648.504 460.424C649.083 461.381 650.43 464.704 651.24 466.19C654.661 472.471 658.097 478.732 661.556 484.992C666.833 485.514 672.502 485.18 677.832 485.017C672.669 475.789 666.947 466.744 662.11 457.427C661.094 455.051 660.15 453.391 660.034 450.825Z"/><path fill="#D3EFFA" d="M614.527 402.989C628.827 402.913 645.469 401.891 659.42 404.229C677.746 407.301 684.538 430.819 672.88 444.227C669.449 448.173 666.215 449.647 661.663 452.102L660.034 450.825C667.525 447.058 672.668 443.422 674.887 435.057C684.665 398.198 634.934 405.078 616.98 404.897C615.733 418.414 616.88 433.083 616.466 446.68C616.382 449.439 616.38 452.875 616.548 455.632C616.596 460.578 617.037 474.253 616.568 478.519C615.179 480.757 615.508 484.172 614.71 487.212C614.351 485.038 614.484 481.467 614.503 479.184C614.723 453.826 613.995 428.331 614.527 402.989Z"/><path fill="#024CD0" d="M632.53 417.353C640.244 416.626 650.054 415.774 656.629 419.975L661.241 424.517C666.528 441.996 651.686 445.728 637.855 443.509C635.412 443.462 634.96 443.675 632.874 444.94C630.681 440.237 632.319 423.684 632.53 417.353ZM638.428 438.39C643.631 438.333 649.446 439.195 653.94 436.161C655.009 434.447 656.269 432.34 656.045 430.223C655.91 428.95 655.078 427.891 654.026 427.224C649.942 424.637 642.798 425.396 638.031 425.417C638.118 429.738 638.128 434.077 638.428 438.39Z"/><path fill="#D3EFFA" d="M632.53 417.353C640.244 416.626 650.054 415.774 656.629 419.975L654.673 420.418C647.223 418.395 641.706 418.975 634.024 418.872C634.023 426.484 634.1 434.244 633.98 441.843L640.824 441.993C638.188 442.885 636.409 442.734 633.647 442.5C635.205 442.805 636.324 443.083 637.855 443.509C635.412 443.462 634.96 443.675 632.874 444.94C630.681 440.237 632.319 423.684 632.53 417.353Z"/><path fill="#B8E9FA" d="M656.629 419.975L661.241 424.517C666.528 441.996 651.686 445.728 637.855 443.509C636.324 443.083 635.205 442.805 633.647 442.5C636.409 442.734 638.188 442.885 640.824 441.993C643.411 441.891 648.68 442.075 650.909 441.559C661.59 439.086 663.434 426.52 654.673 420.418L656.629 419.975Z"/><defs><linearGradient id="gradient_5" gradientUnits="userSpaceOnUse" x1="473.92078" y1="425.23624" x2="542.00067" y2="463.78552"><stop offset="0" stop-color="#9FE5FD"/><stop offset="1" stop-color="#E2F9FF"/></linearGradient></defs><path fill="url(#gradient_5)" d="M515.478 464.11C515.512 462.748 514.999 461.413 513.673 460.924C503.576 457.072 485.65 453.773 479.097 444.61C459.487 417.193 485.864 393.235 514.284 398.393C526.924 400.687 531.734 402.686 539.101 412.289C538.576 409.399 538.088 405.694 539.337 402.933C539.912 401.662 540.843 400.593 542.203 400.199C547.318 398.718 604.758 398.826 607.173 400.672C608.511 401.694 608.925 404.589 609.05 406.134C609.388 410.323 610.236 421.244 607.378 424.262C604.161 427.66 592.212 426.034 587.487 425.995L587.558 466.12C587.569 473.201 587.695 480.273 587.401 487.331C587.068 495.328 579.734 494.075 573.994 493.887C568.044 493.693 559.996 496.354 559.55 487.708C559.175 480.447 559.328 473.318 559.341 466.064C559.401 452.728 559.368 439.392 559.241 426.057C552.686 426.019 539.662 428.723 538.172 420.919C535.432 424.81 523.895 435.056 519.099 430.125C514.232 425.121 507.946 420.852 500.856 424.798L500.411 425.493C501.462 427.548 505.627 429.299 507.859 429.861C529.989 435.433 551.484 447.303 542.804 474.096C539.324 484.835 531.471 490.055 521.105 493.781C515.622 495.038 511.717 495.871 506.072 495.619C504.661 495.556 501.687 495.108 500.596 495.123C485.553 492.205 478.506 487.08 471.118 473.471C471.09 472.521 470.978 469.004 471.249 468.271C473.537 463.674 481.839 460.37 485.917 457.518C494.024 451.847 497.034 465.439 504.569 466.687C509.286 467.468 511.63 466.531 515.478 464.11Z"/><defs><linearGradient id="gradient_6" gradientUnits="userSpaceOnUse" x1="531.31403" y1="488.0784" x2="544.70911" y2="392.08676"><stop offset="0" stop-color="#0246C9"/><stop offset="1" stop-color="#0762EA"/></linearGradient></defs><path fill="url(#gradient_6)" d="M515.478 464.11C515.512 462.748 514.999 461.413 513.673 460.924C503.576 457.072 485.65 453.773 479.097 444.61C459.487 417.193 485.864 393.235 514.284 398.393C526.924 400.687 531.734 402.686 539.101 412.289C538.576 409.399 538.088 405.694 539.337 402.933C539.912 401.662 540.843 400.593 542.203 400.199C547.318 398.718 604.758 398.826 607.173 400.672C608.511 401.694 608.925 404.589 609.05 406.134C609.388 410.323 610.236 421.244 607.378 424.262C604.161 427.66 592.212 426.034 587.487 425.995L587.558 466.12C587.569 473.201 587.695 480.273 587.401 487.331C587.068 495.328 579.734 494.075 573.994 493.887C568.044 493.693 559.996 496.354 559.55 487.708C559.175 480.447 559.328 473.318 559.341 466.064C559.401 452.728 559.368 439.392 559.241 426.057C552.686 426.019 539.662 428.723 538.172 420.919C538.126 418.603 538.457 416.62 537.034 415.161C527.504 404.625 525.477 402.655 510.68 401.157C477.537 397.803 461.106 433.954 495.984 448.224C502.344 450.826 520.03 453.55 519.872 461.609C519.757 463.004 519.684 463.827 519.39 465.188C517.4 464.884 517.337 464.872 515.478 464.11Z"/><path fill="#91E1FE" d="M542.408 402.999L606.013 402.923C605.987 408.425 606.03 414.088 605.93 419.575C599.678 419.701 593.161 419.943 586.93 419.738C585.026 419.715 584.483 419.35 583.244 420.232C582.852 423.937 582.966 427.997 583.003 431.735C583.186 450.182 582.886 468.678 583.135 487.116C576.47 486.99 569.802 487.009 563.138 487.172C563.498 466.137 562.976 443.946 562.954 422.775L563.155 419.601C560.077 420.212 545.955 420.006 542.325 419.848C542.059 414.234 542.087 408.61 542.408 402.999Z"/><path fill="#50C2FE" d="M565.094 485.076L565.157 484.509C566.203 474.184 564.475 462.649 566.372 452.236C567.752 452.208 577.731 453.816 579.944 454.121C581.875 458.399 580.369 478.919 581.167 485.125C575.812 485.388 570.447 485.371 565.094 485.076Z"/><defs><linearGradient id="gradient_7" gradientUnits="userSpaceOnUse" x1="553.98242" y1="443.19785" x2="593.3067" y2="462.69336"><stop offset="0" stop-color="#B3DDF4"/><stop offset="1" stop-color="white"/></linearGradient></defs><path fill="url(#gradient_7)" d="M581.167 485.125C583.5 474.496 579.033 424.262 582.305 418.485C583.836 418.592 585.318 418.603 586.778 419.046L586.93 419.738C585.026 419.715 584.483 419.35 583.244 420.232C582.852 423.937 582.966 427.997 583.003 431.735C583.186 450.182 582.886 468.678 583.135 487.116C576.47 486.99 569.802 487.009 563.138 487.172C563.498 466.137 562.976 443.946 562.954 422.775C568.318 428.111 562.347 446.804 564.93 453.273C564.95 460.619 564.489 478.599 565.094 485.076C570.447 485.371 575.812 485.388 581.167 485.125Z"/><path fill="#DCF1FB" d="M542.408 402.999L606.013 402.923C605.987 408.425 606.03 414.088 605.93 419.575C599.678 419.701 593.161 419.943 586.93 419.738L586.778 419.046C585.318 418.603 583.836 418.592 582.305 418.485C589.982 417.803 596.238 417.488 604.03 417.498L603.976 404.871L544.354 405.033C544.436 409.235 544.476 413.437 544.472 417.639C546.127 417.653 551.729 417.598 553.107 417.906C551.339 417.929 546.054 417.78 544.81 418.453L544.963 418.983C546.073 418.998 553.688 419.033 554.184 419.212C550.656 419.266 545.628 419.167 542.325 419.848C542.059 414.234 542.087 408.61 542.408 402.999Z"/><path fill="#B8E9FA" d="M563.155 419.601C568.872 421.714 565.422 447.909 564.93 453.273C562.347 446.804 568.318 428.111 562.954 422.775L563.155 419.601Z"/><path fill="#024CD0" d="M537.034 415.161C538.457 416.62 538.126 418.603 538.172 420.919C535.432 424.81 523.895 435.056 519.099 430.125C514.232 425.121 507.946 420.852 500.856 424.798L500.411 425.493C501.462 427.548 505.627 429.299 507.859 429.861C529.989 435.433 551.484 447.303 542.804 474.096C539.324 484.835 531.471 490.055 521.105 493.781C515.622 495.038 511.717 495.871 506.072 495.619C504.661 495.556 501.687 495.108 500.596 495.123C485.553 492.205 478.506 487.08 471.118 473.471C472.513 471.175 472.564 470.283 475.273 470.742L475.582 471.172C478.874 475.691 480.745 477.716 485.245 481.166C497.564 490.608 519.086 491.776 531.227 481.566C536.688 477.012 540.007 470.389 540.385 463.288C541.719 441.538 519.28 438.029 504.22 432.132C481.46 423.218 508.008 405.123 522.233 425.941C526.818 422.238 532.176 418.496 537.034 415.161Z"/><path fill="#0F62DF" d="M471.118 473.471C471.09 472.521 470.978 469.004 471.249 468.271C473.537 463.674 481.839 460.37 485.917 457.518C494.024 451.847 497.034 465.439 504.569 466.687C509.286 467.468 511.63 466.531 515.478 464.11C517.337 464.872 517.4 464.884 519.39 465.188C514.295 472.917 503.867 471.086 497.096 466.542C493.924 464.413 492.517 462.09 490.266 459.142C486.584 461.644 476.774 466.676 474.84 469.433L475.273 470.742C472.564 470.283 472.513 471.175 471.118 473.471Z"/><defs><linearGradient id="gradient_8" gradientUnits="userSpaceOnUse" x1="506.90787" y1="485.19904" x2="508.87759" y2="451.4743"><stop offset="0" stop-color="#2CAFFF"/><stop offset="1" stop-color="#72D6FF"/></linearGradient></defs><path fill="url(#gradient_8)" d="M521.338 457.901C523.68 454.158 532.113 455.999 535.272 451.7C536.232 453.461 537.424 455.49 537.727 457.446C541.494 481.735 515.925 490.737 496.743 484.529C488.465 481.849 482.156 476.572 477.372 469.627C482.106 467.159 485.223 465.382 489.618 462.35C502.681 480.211 528.189 472.151 521.338 457.901Z"/><path fill="#91E1FE" d="M505.373 403.737C508.505 403.602 511.643 403.783 514.739 404.276C522.326 405.457 528.516 408.41 533.145 414.718C529.43 416.756 526.109 419.838 522.811 422.491C522.088 421.677 521.359 420.861 520.573 420.107C515.933 415.657 510.749 413.757 504.394 413.991C501.391 414.422 497.815 415.166 495.517 417.315C493.655 419.056 493.325 421.689 493.266 424.094C493.261 424.297 493.26 424.501 493.257 424.704L493.045 424.689C493.101 422.998 493.361 421.285 492.592 419.726C489.898 418.46 486.413 418.59 483.493 417.875L483.031 417.757C481.832 418.149 482.434 417.991 481.224 418.234C481.105 416.321 482.733 414.076 483.894 412.579C489.107 405.854 497.528 404.674 505.373 403.737Z"/><path fill="#91E1FE" d="M521.338 457.901C520.146 457.273 518.451 454.408 516.975 453.677C509.739 450.093 501.604 447.951 494.079 444.777L494.295 444.359C501.331 446.376 511.349 444.639 518.704 444.354C521.787 444.234 524.779 446.781 527.148 444.981C523.353 441.362 508.732 437.946 506.695 436.477C510.688 436.448 525.862 442.801 529.943 445.517C532.125 446.969 533.953 449.453 535.272 451.7C532.113 455.999 523.68 454.158 521.338 457.901Z"/><defs><linearGradient id="gradient_9" gradientUnits="userSpaceOnUse" x1="200.02057" y1="495.08701" x2="190.00154" y2="394.47321"><stop offset="0" stop-color="#0041C9"/><stop offset="1" stop-color="#0464EB"/></linearGradient></defs><path fill="url(#gradient_9)" d="M132.865 399.505C137.995 399.443 150.375 398.192 154.636 400.256C158.064 401.917 166.886 441.196 168.504 447.472C169.518 437.518 175.697 416.178 179.101 406.048C179.812 403.933 180.65 400.839 182.854 399.916C185.333 398.879 200.365 398.901 202.546 400.333C205.538 402.297 214.135 438.107 215.898 444.478C217.717 436.031 224.365 406.216 228.388 400.47C231.35 398.796 244.33 399.17 247.956 399.575C249.472 399.745 250.982 400.3 251.851 401.634C253.059 403.486 253.051 406.044 252.839 408.154C252.057 415.948 246.605 431.458 244.353 439.647L235.452 470.301C233.777 476.129 232.336 482.17 230.277 487.872C229.521 489.966 228.588 492.755 226.361 493.605C224.001 494.507 208.411 494.433 206.322 493.226C201.008 490.155 193.771 457.089 191.932 450.246C189.53 458.221 182.618 487.955 179.493 492.565C178.352 493.34 177.449 493.781 176.061 493.937C171.27 494.474 158.308 494.835 154.605 492.094C151.45 486.73 129.148 409.209 129.439 404.132C129.565 401.927 131.319 400.828 132.865 399.505Z"/><path fill="#91E1FE" d="M183.375 404.253C184.531 402.967 184.344 402.753 186.443 402.695C191.135 402.566 195.981 402.971 200.665 402.86C203.59 414.099 206.769 426.798 210.103 437.87C210.037 440.083 210.054 440.174 209.047 442.093C209.521 443.855 211.235 449.911 211.272 451.44C211.067 452.721 211.007 453.005 211.399 454.24L210.843 454.332C207.292 455.258 204.876 454.156 201.595 455.176C200.688 454.017 200.997 454.512 200.706 452.916L199.857 453.057C197.997 449.62 193.422 430.091 191.6 429.257L190.657 431.408C190.924 432.018 191.329 432.815 191.474 433.427C190.388 439.389 188.32 446.306 186.5 452.157C183.34 463.009 178.834 476.228 176.62 487.051C170.092 486.997 163.564 487.058 157.039 487.235C154.464 476.51 150.241 462.652 146.986 452.052C147.133 449.895 147.051 449.459 147.919 447.547C148.456 449.265 149.065 451.451 149.727 453.079C152.139 451.901 158.236 453.65 160.912 452.617C162.685 451.933 162.485 451.202 162.992 449.444C163.887 453.281 164.651 455.89 165.898 459.637L167.651 459.482C169.381 456.839 183.198 407.316 183.375 404.253Z"/><defs><linearGradient id="gradient_10" gradientUnits="userSpaceOnUse" x1="164.43242" y1="484.26837" x2="166.34187" y2="452.73264"><stop offset="0" stop-color="#28ACFF"/><stop offset="1" stop-color="#6DD2FF"/></linearGradient></defs><path fill="url(#gradient_10)" d="M147.919 447.547C148.456 449.265 149.065 451.451 149.727 453.079C152.139 451.901 158.236 453.65 160.912 452.617C162.685 451.933 162.485 451.202 162.992 449.444C163.887 453.281 164.651 455.89 165.898 459.637C167.724 462.708 167.219 460.961 168.519 464.766L169.2 464.607C169.688 461.648 171.746 456.112 172.685 452.67L173.344 453.173L173.207 454.039C175.016 454.363 182.421 454.686 183.678 453.756C184.34 452.29 185.129 449.628 185.665 448.015C186.758 449.644 186.565 450.198 186.5 452.157C183.34 463.009 178.834 476.228 176.62 487.051C170.092 486.997 163.564 487.058 157.039 487.235C154.464 476.51 150.241 462.652 146.986 452.052C147.133 449.895 147.051 449.459 147.919 447.547Z"/><path fill="#E9F9FD" d="M147.919 447.547C148.456 449.265 149.065 451.451 149.727 453.079L159.14 485.067C164.369 485.201 169.601 485.179 174.829 485.001C177.708 474.566 180.658 464.151 183.678 453.756C184.34 452.29 185.129 449.628 185.665 448.015C186.758 449.644 186.565 450.198 186.5 452.157C183.34 463.009 178.834 476.228 176.62 487.051C170.092 486.997 163.564 487.058 157.039 487.235C154.464 476.51 150.241 462.652 146.986 452.052C147.133 449.895 147.051 449.459 147.919 447.547Z"/><path fill="#D3EFFA" d="M167.651 459.482C169.381 456.839 183.198 407.316 183.375 404.253C184.097 404.564 185.205 405.093 185.924 405.282C181.832 418.7 178.772 432.461 174.448 445.823C173.837 447.713 172.877 450.756 172.685 452.67C171.746 456.112 169.688 461.648 169.2 464.607L168.519 464.766C167.219 460.961 167.724 462.708 165.898 459.637L167.651 459.482Z"/><path fill="#DCF1FB" d="M183.375 404.253C184.531 402.967 184.344 402.753 186.443 402.695C191.135 402.566 195.981 402.971 200.665 402.86C203.59 414.099 206.769 426.798 210.103 437.87C210.037 440.083 210.054 440.174 209.047 442.093C206.943 433.977 204.202 425.862 202.362 417.54C201.4 413.189 199.913 409.57 199.288 404.907C195.525 404.797 189.526 404.571 185.924 405.282C185.205 405.093 184.097 404.564 183.375 404.253Z"/><path fill="#D3EFFA" d="M190.657 431.408C190.924 432.018 191.329 432.815 191.474 433.427C190.388 439.389 188.32 446.306 186.5 452.157C186.565 450.198 186.758 449.644 185.665 448.015C186.068 444.45 188.889 434.593 190.657 431.408Z"/><defs><linearGradient id="gradient_11" gradientUnits="userSpaceOnUse" x1="221.94093" y1="484.0062" x2="217.68082" y2="443.31314"><stop offset="0" stop-color="#28ABFF"/><stop offset="1" stop-color="#7FDEFF"/></linearGradient></defs><path fill="url(#gradient_11)" d="M230.904 402.675C237.115 402.916 243.569 402.94 249.792 403.014C244.081 425.853 236 448.973 229.816 471.745C228.416 476.903 226.755 481.758 225.601 487.031L207.389 487.053C206.257 481.011 201.259 465.532 199.246 459.215C196.867 451.749 193.931 440.393 191.474 433.427C191.329 432.815 190.924 432.018 190.657 431.408L191.6 429.257C193.422 430.091 197.997 449.62 199.857 453.057L200.706 452.916C200.997 454.512 200.688 454.017 201.595 455.176C204.876 454.156 207.292 455.258 210.843 454.332L211.399 454.24C211.007 453.005 211.067 452.721 211.272 451.44C211.235 449.911 209.521 443.855 209.047 442.093C210.054 440.174 210.037 440.083 210.103 437.87C212.396 445.129 214.288 452.509 215.769 459.976C219.17 443.27 226.238 419.551 230.904 402.675Z"/><path fill="#91E1FE" d="M232.898 404.594C237.471 404.763 242.122 404.839 246.704 404.959C245.32 410.605 243.246 416.939 241.584 422.601C239.886 428.382 238.227 435.406 236.221 440.914C232.487 442.328 233.248 451.403 229.317 453.329C226.013 453.369 225.084 452.806 221.988 453.803L221.098 453.342C220.842 452.172 220.759 451.554 220.632 450.359C220.843 447.564 224.969 433.761 226.091 429.754C228.211 422.177 230.26 411.63 232.898 404.594Z"/><defs><linearGradient id="gradient_12" gradientUnits="userSpaceOnUse" x1="195.77684" y1="427.00977" x2="242.51106" y2="452.57474"><stop offset="0" stop-color="#CCEAF9"/><stop offset="1" stop-color="#EFFFFF"/></linearGradient></defs><path fill="url(#gradient_12)" d="M230.904 402.675C237.115 402.916 243.569 402.94 249.792 403.014C244.081 425.853 236 448.973 229.816 471.745C228.416 476.903 226.755 481.758 225.601 487.031L207.389 487.053C206.257 481.011 201.259 465.532 199.246 459.215C196.867 451.749 193.931 440.393 191.474 433.427C191.329 432.815 190.924 432.018 190.657 431.408L191.6 429.257C193.422 430.091 197.997 449.62 199.857 453.057C202.922 462.73 206.967 475.379 209.379 485.075C213.951 485.262 218.822 485.121 223.42 485.068C227.772 471.784 232.655 454.371 236.221 440.914C238.227 435.406 239.886 428.382 241.584 422.601C243.246 416.939 245.32 410.605 246.704 404.959C242.122 404.839 237.471 404.763 232.898 404.594C230.26 411.63 228.211 422.177 226.091 429.754C224.969 433.761 220.843 447.564 220.632 450.359C219.864 453.402 218.617 459.966 216.26 461.678C213.533 460.764 212.138 454.209 211.272 451.44C211.235 449.911 209.521 443.855 209.047 442.093C210.054 440.174 210.037 440.083 210.103 437.87C212.396 445.129 214.288 452.509 215.769 459.976C219.17 443.27 226.238 419.551 230.904 402.675Z"/><path fill="#91E1FE" d="M133.373 402.923L153.185 402.877C156.549 420.725 163.606 440.987 167.651 459.482L165.898 459.637C164.651 455.89 163.887 453.281 162.992 449.444C162.485 451.202 162.685 451.933 160.912 452.617C158.236 453.65 152.139 451.901 149.727 453.079C149.065 451.451 148.456 449.265 147.919 447.547C147.051 449.459 147.133 449.895 146.986 452.052C142.599 436.462 138.016 418.076 133.373 402.923Z"/><path fill="#DCF1FB" d="M133.373 402.923L153.185 402.877C156.549 420.725 163.606 440.987 167.651 459.482L165.898 459.637C164.651 455.89 163.887 453.281 162.992 449.444C159.652 436.12 153.823 417.646 151.305 404.654C146.45 404.833 141.392 404.861 136.517 404.957C139.295 418.643 145.462 434.582 147.919 447.547C147.051 449.459 147.133 449.895 146.986 452.052C142.599 436.462 138.016 418.076 133.373 402.923Z"/><defs><linearGradient id="gradient_13" gradientUnits="userSpaceOnUse" x1="284.40802" y1="497.09589" x2="272.39429" y2="400.13699"><stop offset="0" stop-color="#003FC8"/><stop offset="1" stop-color="#0668F2"/></linearGradient></defs><path fill="url(#gradient_13)" d="M269.576 399.593C275.505 399.375 292.283 398.32 297.095 400.329C298.75 401.02 299.689 403.808 300.369 405.424C304.918 416.235 307.896 428.251 311.588 439.427C316.291 453.664 322.009 468.145 325.738 482.623C326.217 484.483 327.188 487.585 326.385 489.345C325.528 491.223 323.955 492.678 322.017 493.387C318.321 494.758 304.84 494.738 301.583 493.19C296.911 490.967 295.531 482.503 294.025 478.005L293.652 476.942C290.996 474.99 275.7 475.963 271.559 475.983C270.147 480.573 269.135 485.948 266.968 490.219C266.28 491.574 265.335 493.171 263.788 493.594C260.614 494.461 244.4 494.576 242.044 492.874C240.232 491.566 239.78 488.541 239.279 486.508C244.902 467.561 251.207 448.68 257.394 429.902C260.367 420.875 262.859 410.739 266.982 402.245C267.609 400.954 268.393 400.36 269.576 399.593ZM283.22 451.238C284.441 451.118 286.051 451.257 287.011 450.495C286.181 447.837 284.244 439.456 282.739 437.869C281.799 440.769 278.384 448.794 279.213 451.413L283.22 451.238Z"/><path fill="#91E1FE" d="M270.633 402.94L295.723 402.859C303.385 428.764 312.979 456.968 321.513 482.699C322.025 484.635 322.496 485.115 322.078 486.781C317.911 487.383 307.389 487.067 302.624 487.081C300.646 481.516 298.198 475.117 296.443 469.55C286.911 469.91 277.987 470.07 268.452 469.435L262.857 487.032C260.118 487.056 244.847 487.535 243.49 486.515C243.599 485.235 243.525 485.214 244.079 484.082C252.658 456.946 261.51 429.898 270.633 402.94ZM283.22 451.238C284.441 451.118 286.051 451.257 287.011 450.495C286.181 447.837 284.244 439.456 282.739 437.869C281.799 440.769 278.384 448.794 279.213 451.413L283.22 451.238Z"/><defs><linearGradient id="gradient_14" gradientUnits="userSpaceOnUse" x1="282.48688" y1="484.68262" x2="283.16489" y2="449.43597"><stop offset="0" stop-color="#30B2FF"/><stop offset="1" stop-color="#74D5FF"/></linearGradient></defs><path fill="url(#gradient_14)" d="M258.292 447.851C260.662 449.785 269.102 450.381 272.251 450.242L270.242 457.002C274.583 457.018 292.271 457.708 295.021 456.028C295.157 455.601 295.397 454.946 295.459 454.529L295.881 453.249C297.859 451.966 305.556 452.003 308.836 451.637C309.819 455.736 318.121 480.944 320.048 484.875L321.513 482.699C322.025 484.635 322.496 485.115 322.078 486.781C317.911 487.383 307.389 487.067 302.624 487.081C300.646 481.516 298.198 475.117 296.443 469.55C286.911 469.91 277.987 470.07 268.452 469.435L262.857 487.032C260.118 487.056 244.847 487.535 243.49 486.515C243.599 485.235 243.525 485.214 244.079 484.082L244.695 484.71L244.838 485.239C247.93 485.965 256.278 485.957 259.274 485.325C256.015 484.947 249.382 485.027 245.872 484.967C250.157 473.524 254.507 459.624 258.292 447.851Z"/><path fill="#E9F9FD" d="M285.459 467.476L297.492 467.736C300.067 471.401 302.875 480.52 304.393 485.148C308.623 485.258 315.756 485.244 320.048 484.875L321.513 482.699C322.025 484.635 322.496 485.115 322.078 486.781C317.911 487.383 307.389 487.067 302.624 487.081C300.646 481.516 298.198 475.117 296.443 469.55C286.911 469.91 277.987 470.07 268.452 469.435L262.857 487.032C260.118 487.056 244.847 487.535 243.49 486.515C243.599 485.235 243.525 485.214 244.079 484.082L244.695 484.71L244.838 485.239C247.93 485.965 256.278 485.957 259.274 485.325C262.585 483.939 264.728 472.296 267.643 467.306C272.332 467.736 280.574 467.632 285.459 467.476Z"/><path fill="#50C2FE" d="M267.643 467.306C270.847 465.218 282.367 465.379 285.459 467.476C280.574 467.632 272.332 467.736 267.643 467.306Z"/><path fill="#024CD0" d="M272.251 450.242C273.142 446.88 280.417 421.707 281.505 419.901L281.954 420.236L282.23 422.502L282.869 422.444L283.099 423.098L284.703 421.867C289.891 432.731 292.075 437.857 294.217 449.975C294.511 451.17 295.011 453.509 295.459 454.529C295.397 454.946 295.157 455.601 295.021 456.028C292.271 457.708 274.583 457.018 270.242 457.002L272.251 450.242ZM283.22 451.238C284.441 451.118 286.051 451.257 287.011 450.495C286.181 447.837 284.244 439.456 282.739 437.869C281.799 440.769 278.384 448.794 279.213 451.413L283.22 451.238Z"/><path fill="#DCF1FB" d="M272.251 450.242C273.142 446.88 280.417 421.707 281.505 419.901L281.954 420.236L282.23 422.502C280.798 431.823 275.153 444.812 272.882 455.019C275.936 455.007 291.764 455.298 293.371 454.564L293.46 454.255C293.763 452.919 293.988 451.347 294.217 449.975C294.511 451.17 295.011 453.509 295.459 454.529C295.397 454.946 295.157 455.601 295.021 456.028C292.271 457.708 274.583 457.018 270.242 457.002L272.251 450.242Z"/><path fill="#B8E9FA" d="M283.099 423.098L284.703 421.867C289.891 432.731 292.075 437.857 294.217 449.975C293.988 451.347 293.763 452.919 293.46 454.255L283.099 423.098Z"/><path fill="#DCF1FB" d="M270.633 402.94L295.723 402.859C303.385 428.764 312.979 456.968 321.513 482.699L320.048 484.875C318.121 480.944 309.819 455.736 308.836 451.637L293.93 404.944C287.682 404.541 278.663 404.803 272.262 404.821C267.727 419.204 263.07 433.548 258.292 447.851C254.507 459.624 250.157 473.524 245.872 484.967C249.382 485.027 256.015 484.947 259.274 485.325C256.278 485.957 247.93 485.965 244.838 485.239L244.695 484.71L244.079 484.082C252.658 456.946 261.51 429.898 270.633 402.94Z"/><defs><linearGradient id="gradient_15" gradientUnits="userSpaceOnUse" x1="808.99103" y1="491.39651" x2="754.00897" y2="401.10349"><stop offset="0" stop-color="#003EC6"/><stop offset="1" stop-color="#0663E9"/></linearGradient></defs><path fill="url(#gradient_15)" d="M778.953 459.662C778.964 460.869 779.071 462.014 779.167 463.215C781.093 464.871 797.537 463.786 801.211 463.685C811.536 463.402 811.532 466.66 811.671 476.281C811.732 480.479 811.727 485.859 811.303 490.121C810.613 493.046 806.58 494.048 804.251 494.025C791.336 493.834 778.413 494.152 765.496 494.057C756.822 493.993 751.378 496.148 751.172 484.77C750.757 461.852 751.662 438.898 751.274 415.992C751.196 411.387 749.985 399.962 756.375 399.87C772.377 399.079 788.55 399.501 804.597 399.604C809.645 400.114 812.122 400.407 812.206 405.687C812.534 426.483 814.51 426.629 792.573 426.009C789.247 425.915 782.845 425.965 779.064 425.946C779.037 427.793 779.124 429.657 779.187 431.505C786.752 431.152 796.757 431.449 804.427 431.047C811.773 430.662 810.614 452.663 807.705 455.604C803.066 460.294 784.814 455.399 779.296 458.108L778.953 459.662Z"/><path fill="#91E1FE" d="M757.429 404.836C773.485 405.246 790.929 404.888 807.143 404.973C807.116 405.608 807.097 406.243 807.084 406.879C807.072 407.684 806.998 411.212 807.415 411.636L807.457 407.225C808.599 411.519 808.074 414.621 807.684 419C800.791 418.953 793.898 418.998 787.007 419.133C793.88 419.866 801.848 418.615 808.689 419.708C801.7 420.561 783.12 419.873 774.964 420.001C774.952 424.218 775.04 428.856 774.915 433.034L774.973 434.752C778.064 434.096 777.878 434.13 779.187 431.505C786.752 431.152 796.757 431.449 804.427 431.047C811.773 430.662 810.614 452.663 807.705 455.604C803.066 460.294 784.814 455.399 779.296 458.108L778.953 459.662C778.334 461.533 777.383 463.615 776.607 465.458L776.183 465.488C776.043 463.497 776.01 460.867 775.142 459.114L774.834 458.465C775.08 455.976 774.451 452.82 775.63 450.869L774.912 449.461C773.942 450.683 773.679 450.852 773.161 452.343L772.337 451.792L771.48 452.251C767.655 450.723 760.184 451.476 758.195 449.244C757.82 451.619 757.722 453.291 757.58 455.664C757.274 450.929 757.605 442.929 757.606 437.855L757.429 404.836Z"/><defs><linearGradient id="gradient_16" gradientUnits="userSpaceOnUse" x1="792.90637" y1="464.95816" x2="790.83234" y2="431.30167"><stop offset="0" stop-color="#0034BE"/><stop offset="1" stop-color="#0765EC"/></linearGradient></defs><path fill="url(#gradient_16)" d="M779.187 431.505C786.752 431.152 796.757 431.449 804.427 431.047C811.773 430.662 810.614 452.663 807.705 455.604C803.066 460.294 784.814 455.399 779.296 458.108L778.953 459.662C778.334 461.533 777.383 463.615 776.607 465.458L776.183 465.488C776.043 463.497 776.01 460.867 775.142 459.114L774.834 458.465C775.08 455.976 774.451 452.82 775.63 450.869L774.912 449.461C780.841 449.443 798.891 449.674 803.583 448.168L804.654 448.408L805.307 451.357C805.792 447.202 805.476 439.326 805.41 434.92C796.962 434.569 782.445 435.603 774.973 434.752C778.064 434.096 777.878 434.13 779.187 431.505Z"/><path fill="#DCF1FB" d="M803.583 448.168L804.654 448.408L805.307 451.357C798.076 451.372 782.045 451.742 775.63 450.869L774.912 449.461C780.841 449.443 798.891 449.674 803.583 448.168Z"/><path fill="#B8E9FA" d="M803.583 448.168C803.968 445.035 804.245 439.632 802.201 437.108C797.208 436.5 780.753 437.428 774.146 437.146C771.395 434.448 772.228 423.413 774.065 420.907C774.642 423.9 774.535 429.373 774.915 433.034L774.973 434.752C782.445 435.603 796.962 434.569 805.41 434.92C805.476 439.326 805.792 447.202 805.307 451.357L804.654 448.408L803.583 448.168Z"/><defs><linearGradient id="gradient_17" gradientUnits="userSpaceOnUse" x1="781.25983" y1="484.03217" x2="781.21051" y2="449.96716"><stop offset="0" stop-color="#32B1FF"/><stop offset="1" stop-color="#71D5FF"/></linearGradient></defs><path fill="url(#gradient_17)" d="M757.58 455.664C757.722 453.291 757.82 451.619 758.195 449.244C760.184 451.476 767.655 450.723 771.48 452.251L772.337 451.792L773.161 452.343C773.094 454.915 772.95 457.729 773.078 460.279C772.931 462.754 773.078 466.964 773.082 469.573C782.349 469.093 795.793 469.46 805.369 469.465C805.529 474.499 805.407 479.94 805.386 485.006C791.591 485.508 771.306 485.472 757.54 485.026L757.58 455.664Z"/><path fill="#E9F9FD" d="M755.217 402.88C772.807 403.243 791.262 402.981 808.891 402.908C809.038 407.933 809.139 414.804 808.689 419.708C801.848 418.615 793.88 419.866 787.007 419.133C793.898 418.998 800.791 418.953 807.684 419C808.074 414.621 808.599 411.519 807.457 407.225L807.415 411.636C806.998 411.212 807.072 407.684 807.084 406.879C807.097 406.243 807.116 405.608 807.143 404.973C790.929 404.888 773.485 405.246 757.429 404.836L757.606 437.855C757.605 442.929 757.274 450.929 757.58 455.664L757.54 485.026C771.306 485.472 791.591 485.508 805.386 485.006C805.407 479.94 805.529 474.499 805.369 469.465C795.793 469.46 782.349 469.093 773.082 469.573C773.078 466.964 772.931 462.754 773.078 460.279C772.95 457.729 773.094 454.915 773.161 452.343C773.679 450.852 773.942 450.683 774.912 449.461L775.63 450.869C774.451 452.82 775.08 455.976 774.834 458.465L775.142 459.114C774.908 460.972 775.001 465.388 774.996 467.471L807.447 467.252L807.516 487.075C790.156 486.996 772.796 487.029 755.436 487.174C755.124 459.077 755.051 430.978 755.217 402.88Z"/><path fill="#D3EFFA" d="M774.912 449.461L775.63 450.869C774.451 452.82 775.08 455.976 774.834 458.465L774.105 455.091L773.767 455.246C773.575 456.877 773.413 458.695 773.078 460.279C772.95 457.729 773.094 454.915 773.161 452.343C773.679 450.852 773.942 450.683 774.912 449.461Z"/><defs><linearGradient id="gradient_18" gradientUnits="userSpaceOnUse" x1="876.7995" y1="486.44882" x2="842.64343" y2="391.62344"><stop offset="0" stop-color="#0042CA"/><stop offset="1" stop-color="#065EE3"/></linearGradient></defs><path fill="url(#gradient_18)" d="M818.05 399.602C831.402 399.335 844.788 399.494 858.143 399.484C865.393 399.479 873.137 398.924 880.337 399.65C882.37 399.855 886.35 400.287 887.751 401.937C888.891 403.281 888.997 406.218 889.069 407.883C889.229 411.592 889.793 421.303 887.006 424.002C883.209 427.68 869.2 426.045 863.916 425.994L863.977 471.875C863.892 477.321 865.515 485.986 863.139 490.818C862.457 492.232 861.219 493.299 859.72 493.765C855.871 494.985 841.664 494.518 838.239 492.569C837.017 490.936 836.819 488.597 836.646 486.616C835.992 479.119 836.479 471.222 836.494 463.686C836.52 451.13 836.359 438.535 836.815 425.986C832.926 426.062 819.712 427.502 817.04 424.692C813.942 421.434 814.714 411.906 815.001 407.695C815.223 404.455 815.477 401.837 818.05 399.602Z"/><path fill="#91E1FE" d="M818.866 402.888C840.691 403.028 863.319 402.569 884.999 403.005C885.009 408.514 885.094 414.247 884.987 419.734C878.671 420.355 866.731 419.964 859.953 419.943L860.007 466.143C860 470.285 860.211 484.044 859.687 487.29C855.522 487.089 843.041 487.939 840.635 486.213L840.631 484.292C839.901 468.192 840.344 445.003 840.545 428.632C840.411 425.963 840.449 422.793 840.412 420.08C834.517 419.895 824.503 420.329 819.065 419.645C818.945 414.06 818.879 408.474 818.866 402.888Z"/><path fill="#50C2FE" d="M842.49 457.388C842.874 456.467 843.79 454.281 844.147 453.511C844.362 453.048 843.162 451.909 843.992 450.667L844.712 450.834L846.293 451.19C850.086 452.055 852.932 451.388 856.417 452.781C857.093 454.297 857.366 456.798 857.661 458.533C857.145 464.134 857.632 478.933 857.655 485.053C852.673 485.183 847.69 485.25 842.707 485.253C842.483 476.076 842.587 466.613 842.49 457.388Z"/><path fill="#D3EFFA" d="M840.545 428.632C841.255 425.965 841.123 423.652 841.133 420.917C843.685 425.389 842.763 443.01 842.416 448.617L842.49 457.388C842.587 466.613 842.483 476.076 842.707 485.253C847.69 485.25 852.673 485.183 857.655 485.053C857.632 478.933 857.145 464.134 857.661 458.533C858.049 448.373 857.211 428.516 859.115 419.533C860.685 434.852 858.94 455.365 859.402 471.162C859.55 476.184 859.121 482.408 859.687 487.29C855.522 487.089 843.041 487.939 840.635 486.213L840.631 484.292C839.901 468.192 840.344 445.003 840.545 428.632Z"/><path fill="#B8E9FA" d="M840.545 428.632C841.255 425.965 841.123 423.652 841.133 420.917C843.685 425.389 842.763 443.01 842.416 448.617C841.551 450.294 842.115 474.945 841.612 479.545C841.565 474.675 841.73 465.846 841.167 461.425C841.188 465.603 841.506 481.311 840.631 484.292C839.901 468.192 840.344 445.003 840.545 428.632Z"/><path fill="#DCF1FB" d="M818.866 402.888C840.691 403.028 863.319 402.569 884.999 403.005C885.009 408.514 885.094 414.247 884.987 419.734C882.78 419.312 877.291 419.266 874.782 419.187C877.749 419.192 880.237 419.421 882.923 418.26C883.438 417.658 884.345 416.761 884.204 415.889C883.512 411.608 883.275 409.683 883.358 405.288C877.176 404.586 866.748 404.888 860.179 404.904C847.26 404.974 834.341 404.974 821.422 404.904L821.541 417.288C826.345 417.717 834.393 418.179 839.093 418.189L839.327 418.58C832.439 419.026 825.621 419.175 819.065 419.645C818.945 414.06 818.879 408.474 818.866 402.888Z"/><path fill="#024CD0" d="M392.427 399.54C397.151 399.481 410.694 397.956 413.849 401.251C415.295 402.761 415.758 405.889 415.997 407.855C416.782 414.313 416.394 421.208 416.412 427.73L416.422 463.969C422.94 463.959 443.79 462.199 448.118 465.928C450.402 470.153 449.691 480.753 449.526 485.762C449.413 489.156 448.814 491.541 446.33 493.905C435.844 494.04 425.357 494.091 414.87 494.058C408.432 494.065 401.717 494.456 395.321 493.844C393.319 493.652 391.671 493.636 390.403 491.92C389.34 490.481 389.019 488.567 388.904 486.831C388.54 481.321 388.863 475.609 388.895 470.084L388.948 439.828L388.932 415.478C388.931 411.602 388.531 407.07 389.207 403.267C389.559 401.288 390.88 400.567 392.427 399.54Z"/><defs><linearGradient id="gradient_19" gradientUnits="userSpaceOnUse" x1="377.13202" y1="425.42899" x2="448.17325" y2="480.07462"><stop offset="0" stop-color="#D8E9F8"/><stop offset="1" stop-color="#F7FFFF"/></linearGradient></defs><path fill="url(#gradient_19)" d="M392.97 402.936C399.335 402.904 405.7 402.912 412.065 402.963L412.074 467.424L445.378 467.418C444.912 473.905 445.135 480.456 445.175 486.956C439.408 487.438 433.317 487.043 427.518 487.039L393.058 487.084L392.97 402.936Z"/><defs><linearGradient id="gradient_20" gradientUnits="userSpaceOnUse" x1="418.9552" y1="484.06076" x2="419.04315" y2="451.55017"><stop offset="0" stop-color="#32B2FF"/><stop offset="1" stop-color="#6FD4FF"/></linearGradient></defs><path fill="url(#gradient_20)" d="M395.358 450.997C397.737 451.242 408.632 451.992 409.817 452.995C410.203 458.118 409.6 463.797 410.311 469.103C414.416 469.956 437.893 469.429 443.142 469.291C443.231 474.52 443.217 479.75 443.1 484.979C428.356 485.447 410.004 485.312 395.225 485.041C395.649 474.172 395.403 461.956 395.358 450.997Z"/><path fill="#91E1FE" d="M395.067 404.876C399.622 404.897 405.955 405.111 410.338 404.581L410.456 447.424C410.467 452.587 410.774 464.303 410.311 469.103C409.6 463.797 410.203 458.118 409.817 452.995C408.632 451.992 397.737 451.242 395.358 450.997C395.171 441.735 395.038 432.472 394.96 423.209C394.967 417.204 395.329 410.819 395.067 404.876Z"/><path fill="#024CD0" d="M331.862 399.527C338.218 399.403 344.595 399.542 350.953 399.582C351.8 400.174 352.738 400.773 353.491 401.479C354.317 402.254 354.721 403.032 354.936 404.123C356.179 410.44 355.422 418.113 355.422 424.584C355.478 437.686 355.418 450.789 355.24 463.891C361.771 463.777 380.866 462.366 385.667 465.426C387.692 469.168 387.389 483.394 386.809 487.913C386.452 490.691 385.414 492.136 383.285 493.872C375.489 494.212 337.278 494.859 332.255 493.532C329.881 492.905 328.663 490.208 327.538 488.26C328.473 482.144 328.064 475.526 328.076 469.331L328.008 426.577C327.993 419.463 327.377 411.697 328.297 404.665C328.664 401.859 329.739 401.231 331.862 399.527Z"/><path fill="#E9F9FD" d="M331.995 402.737C338.354 402.981 344.718 402.88 351.08 402.834C350.595 424.345 350.999 445.965 350.959 467.489C361.645 467.463 372.331 467.353 383.016 467.159L383.023 486.875C377.776 487.699 371.465 487.086 366.127 487.073C354.763 487.015 343.399 487.026 332.036 487.106L331.995 402.737Z"/><defs><linearGradient id="gradient_21" gradientUnits="userSpaceOnUse" x1="358.43152" y1="485.74213" x2="355.41913" y2="449.31155"><stop offset="0" stop-color="#30B1FF"/><stop offset="1" stop-color="#70D4FF"/></linearGradient></defs><path fill="url(#gradient_21)" d="M334.421 449.993C335.968 451.257 346.701 451.309 349.153 451.256C348.838 457.121 348.988 463.612 349.001 469.528C359.192 469.151 370.682 469.409 380.967 469.413C381.172 474.566 381.079 479.812 381.05 484.975C367.277 485.411 348.209 485.446 334.523 485.029L334.421 449.993Z"/><path fill="#91E1FE" d="M333.981 404.518C339.119 404.825 343.985 404.883 349.12 404.945C349.665 416.232 349.752 439.943 349.153 451.256C346.701 451.309 335.968 451.257 334.421 449.993C334.222 434.817 334.38 419.656 333.981 404.518Z"/><path fill="#024CD0" d="M488.761 519.452C493.14 518.255 498.102 517.469 502.402 519.392C507.214 521.543 508.969 517.035 512.584 518.779C515.902 520.38 514.683 534.06 514.784 537.337C515.041 545.725 515.412 559.961 505.543 562.847C498.616 565.257 491.271 565.905 485.014 561.272C481.071 558.444 478.168 549.429 485.295 549.046C486.361 548.989 491.372 551.772 492.199 552.587C498.443 554.339 500.676 554.944 504.815 549.297C481.717 559.634 468.884 529.113 488.761 519.452ZM487.949 536.732C488.636 538.452 489.454 539.805 490.55 541.294C490.683 541.362 490.815 541.429 490.948 541.497L491.618 541.816C495.052 543.473 499.87 544.177 503.124 541.529C506.114 539.096 506.087 535.908 506.293 532.351C503.633 525.407 499.17 523.732 492.278 525.774C488.093 529.867 487.636 531.027 487.949 536.732Z"/><path fill="#73D6FD" d="M488.761 519.452L490.962 519.941L494.21 520.015L498.209 520.759C497.085 520.992 496.629 521.025 495.478 521.101C496.356 521.629 497.071 521.448 498.262 521.491L498.212 521.894C495.453 523.361 496.107 523.225 492.821 523.412L492.243 523.938L492.689 525.099L492.278 525.774C499.17 523.732 503.633 525.407 506.293 532.351C507.915 537.344 505.98 537.151 506.176 540.822C505.736 542.22 505.18 542.777 504.181 543.794L504.463 543.673C503.827 544.532 503.202 545.398 502.588 546.273C503.828 545.732 504.271 545.283 505.646 545.583C506.23 546.692 506.298 547.588 505.939 548.783C505.221 551.168 503.314 553.283 501.059 554.31C498.596 555.433 495.661 555.077 493.21 554.087C492.496 553.799 491.85 553.389 491.195 552.99L492.199 552.587C498.443 554.339 500.676 554.944 504.815 549.297C481.717 559.634 468.884 529.113 488.761 519.452ZM487.949 536.732C488.636 538.452 489.454 539.805 490.55 541.294C490.683 541.362 490.815 541.429 490.948 541.497L491.618 541.816C495.052 543.473 499.87 544.177 503.124 541.529C506.114 539.096 506.087 535.908 506.293 532.351C503.633 525.407 499.17 523.732 492.278 525.774C488.093 529.867 487.636 531.027 487.949 536.732Z"/><path fill="#0140BD" d="M492.278 525.774C499.17 523.732 503.633 525.407 506.293 532.351C506.087 535.908 506.114 539.096 503.124 541.529C499.87 544.177 495.052 543.473 491.618 541.816L490.948 541.497C490.815 541.429 490.683 541.362 490.55 541.294C489.454 539.805 488.636 538.452 487.949 536.732C487.636 531.027 488.093 529.867 492.278 525.774ZM499.601 541.914C501.975 540.546 503.847 539.565 504.656 536.773C505.111 535.203 504.9 533.563 504.013 532.178C502.999 530.594 500.848 528.848 498.95 528.563C497.363 528.325 495.536 528.54 493.933 528.618C492.039 529.209 490.753 529.884 489.848 531.74C489.045 533.426 488.979 535.37 489.666 537.106C490.418 539.047 491.983 540.838 493.921 541.653C495.862 542.469 497.59 542.321 499.601 541.914Z"/><path fill="#024CD0" d="M488.761 519.452L490.962 519.941C486.048 521.941 484.182 523.531 481.877 528.437C479.297 533.926 480.864 542.8 486.957 545.238C489.953 545.015 495.309 546.287 497.734 548.086C499.585 548.102 501.228 547.531 502.588 546.273C503.828 545.732 504.271 545.283 505.646 545.583C506.23 546.692 506.298 547.588 505.939 548.783C505.221 551.168 503.314 553.283 501.059 554.31C498.596 555.433 495.661 555.077 493.21 554.087C492.496 553.799 491.85 553.389 491.195 552.99L492.199 552.587C498.443 554.339 500.676 554.944 504.815 549.297C481.717 559.634 468.884 529.113 488.761 519.452Z"/><path fill="#91E1FE" d="M486.957 545.238C489.953 545.015 495.309 546.287 497.734 548.086C493.666 548.711 490.37 547.199 486.957 545.238Z"/><path fill="#91E1FE" d="M490.55 541.294C490.658 541.815 490.53 542.352 490.471 542.877L489.795 543.047C488.443 542.053 487.496 540.875 486.876 539.289C486.482 538.278 486.374 537.569 486.83 536.573L487.949 536.732C488.636 538.452 489.454 539.805 490.55 541.294Z"/><path fill="#91E1FE" d="M494.21 520.015C504.037 519.462 500.078 521.821 505.571 522.819L506.301 521.27C508.404 520.567 513.132 519.201 513.173 522.842C513.254 529.997 515.302 549.592 510.136 554.47C509.785 553.715 509.665 553.757 509.919 552.821C510.126 552.059 510.616 551.32 510.837 550.521C511.663 547.536 513.091 540.748 511.095 538.09C510.651 537.499 510.232 537.695 509.56 537.667C507.805 538.532 507.166 539.127 506.176 540.822C505.98 537.151 507.915 537.344 506.293 532.351C503.633 525.407 499.17 523.732 492.278 525.774L492.689 525.099L492.243 523.938L492.821 523.412C496.107 523.225 495.453 523.361 498.212 521.894L498.262 521.491C497.071 521.448 496.356 521.629 495.478 521.101C496.629 521.025 497.085 520.992 498.209 520.759L494.21 520.015Z"/><path fill="#58CAFE" d="M506.176 540.822C507.166 539.127 507.805 538.532 509.56 537.667C510.232 537.695 510.651 537.499 511.095 538.09C513.091 540.748 511.663 547.536 510.837 550.521C510.616 551.32 510.126 552.059 509.919 552.821C509.665 553.757 509.785 553.715 510.136 554.47C508.603 556.107 506.651 557.291 504.492 557.896C502.78 556.828 492.966 558.083 488.301 555.883C486.72 555.137 485.328 554.07 484.739 552.423L485.477 551.711L486.526 551.743C487.575 552.48 488.529 553.083 489.696 553.633L490.429 553.203L491.195 552.99C491.85 553.389 492.496 553.799 493.21 554.087C495.661 555.077 498.596 555.433 501.059 554.31C503.314 553.283 505.221 551.168 505.939 548.783C506.298 547.588 506.23 546.692 505.646 545.583C504.271 545.283 503.828 545.732 502.588 546.273C503.202 545.398 503.827 544.532 504.463 543.673L504.181 543.794C505.18 542.777 505.736 542.22 506.176 540.822Z"/><path fill="#B8E9FA" d="M504.492 557.896C501.373 559.278 497.452 559.441 494.074 559.168C490.815 558.905 486.91 557.748 484.787 555.092C483.84 553.908 483.66 552.911 483.88 551.456L484.966 550.757C486.55 550.691 488.674 551.727 489.887 552.731C490.072 552.883 490.248 553.045 490.429 553.203L489.696 553.633C488.529 553.083 487.575 552.48 486.526 551.743L485.477 551.711L484.739 552.423C485.328 554.07 486.72 555.137 488.301 555.883C492.966 558.083 502.78 556.828 504.492 557.896Z"/><path fill="#91E1FE" d="M314.412 525.438C321.365 516.247 327.943 517.247 336.9 520.299C337.8 520.605 340.253 517.32 344.312 518.846C347.847 523.119 345.416 541.021 346.289 547.356C345.58 548.886 344.949 549.952 343.781 551.173C339.455 552.417 339.445 547.846 331.763 551.342C328.301 552.233 325.965 552.139 322.501 551.294C321.983 551.013 321.468 550.727 320.956 550.435C311.936 545.318 309.258 534.338 314.412 525.438ZM331.039 542.288C333.326 541.107 335.156 540.024 336.036 537.474C336.645 535.711 336.535 533.756 335.631 532.112C334.734 530.48 332.955 529.111 331.142 528.667C329.936 528.372 328.575 528.478 327.341 528.52C325.191 529.168 323.516 529.576 322.42 531.712C321.526 533.456 321.478 535.496 322.165 537.318C322.948 539.382 324.573 541.014 326.633 541.807C327.984 542.333 329.611 542.516 331.039 542.288Z"/><path fill="#0140BD" d="M322.922 540.926C317.026 533.509 321.833 524.138 331.408 524.737C335.035 526.496 336.54 527.647 337.632 531.678C338.299 534.242 338.699 535.614 338.979 538.283C338.274 540.553 336.645 542.146 336.579 544.509C335.234 545.907 333.983 546.807 332.279 547.729L332.147 545.616C331.183 545.211 330.222 544.801 329.263 544.386L329.936 543.76C327.133 543.295 325.346 542.36 322.922 540.926ZM331.039 542.288C333.326 541.107 335.156 540.024 336.036 537.474C336.645 535.711 336.535 533.756 335.631 532.112C334.734 530.48 332.955 529.111 331.142 528.667C329.936 528.372 328.575 528.478 327.341 528.52C325.191 529.168 323.516 529.576 322.42 531.712C321.526 533.456 321.478 535.496 322.165 537.318C322.948 539.382 324.573 541.014 326.633 541.807C327.984 542.333 329.611 542.516 331.039 542.288Z"/><path fill="#73D6FD" d="M337.632 531.678C338.299 534.242 338.699 535.614 338.979 538.283C338.274 540.553 336.645 542.146 336.579 544.509C335.234 545.907 333.983 546.807 332.279 547.729L332.147 545.616C331.183 545.211 330.222 544.801 329.263 544.386L329.936 543.76C337.517 542.244 337.579 538.23 337.632 531.678Z"/><path fill="#024CD0" d="M314.412 525.438L315.076 526.935C313.866 530.089 313.534 531.441 313.281 534.838C313.574 534.92 313.865 535.007 314.159 535.085C315.216 535.364 315.892 535.245 316.959 535.023C317.852 534.837 318.059 535.085 318.871 535.425C319.191 536.442 319.444 537.395 319.647 538.442C319.844 539.454 320.117 540.02 320.763 540.848C321.822 541.228 321.861 541.275 322.922 540.926C325.346 542.36 327.133 543.295 329.936 543.76L329.263 544.386C330.222 544.801 331.183 545.211 332.147 545.616L332.279 547.729C333.983 546.807 335.234 545.907 336.579 544.509C337.575 546.091 338.483 547.759 340.522 548.081C341.745 548.274 343.371 547.982 344.545 547.601L346.289 547.356C345.58 548.886 344.949 549.952 343.781 551.173C339.455 552.417 339.445 547.846 331.763 551.342C328.301 552.233 325.965 552.139 322.501 551.294C321.983 551.013 321.468 550.727 320.956 550.435C311.936 545.318 309.258 534.338 314.412 525.438Z"/><path fill="#58CAFE" d="M313.281 534.838C313.574 534.92 313.865 535.007 314.159 535.085C315.216 535.364 315.892 535.245 316.959 535.023C317.852 534.837 318.059 535.085 318.871 535.425C319.191 536.442 319.444 537.395 319.647 538.442C319.844 539.454 320.117 540.02 320.763 540.848C321.822 541.228 321.861 541.275 322.922 540.926C325.346 542.36 327.133 543.295 329.936 543.76L329.263 544.386C330.222 544.801 331.183 545.211 332.147 545.616C326.512 548.55 323.815 544.628 318.433 544.777C315.14 542.643 314.067 538.447 313.281 534.838Z"/><path fill="#91E1FE" d="M318.433 544.777C323.815 544.628 326.512 548.55 332.147 545.616L332.279 547.729C331.116 548.005 329.942 548.273 328.746 548.352C324.794 548.611 321.426 547.299 318.433 544.777Z"/><path fill="#024CD0" d="M314.412 525.438C321.365 516.247 327.943 517.247 336.9 520.299C337.8 520.605 340.253 517.32 344.312 518.846C347.847 523.119 345.416 541.021 346.289 547.356L344.545 547.601L344.418 546.822C344.671 538.113 344.937 529.124 344.367 520.436C339.943 520.814 337.518 522.998 333.843 520.957C331.68 519.756 329.865 519.769 327.418 519.926C321.447 519.972 318.549 522.176 315.076 526.935L314.412 525.438Z"/><path fill="#50C2FE" d="M338.979 538.283C339.585 536.09 341.062 535.064 342.753 533.608L343.218 546.643L343.731 546.974L344.418 546.822L344.545 547.601C343.371 547.982 341.745 548.274 340.522 548.081C338.483 547.759 337.575 546.091 336.579 544.509C336.645 542.146 338.274 540.553 338.979 538.283Z"/><path fill="#91E1FE" d="M687.496 525.896C705.789 505.29 725.466 530.335 717.941 538.135C715.78 538.28 713.618 538.4 711.454 538.497C713.581 538.974 715.377 539.105 716.945 540.515L717.445 542.082C717.458 546.022 713.431 549.747 709.962 551.055C694.042 557.063 679.456 541.297 687.496 525.896ZM695.003 538.089C696.973 540.475 698.968 542.849 702.263 543.126C704.759 543.336 706.805 542.086 708.772 540.721C709.014 540.539 709.254 540.354 709.498 540.175C710.457 539.468 710.044 539.708 710.991 539.287L711.305 538.56C705.915 538.242 700.398 537.969 695.003 538.089ZM711.203 530.436C704.672 520.05 694.042 525.334 694.255 530.859C696.194 532.286 708.174 531.434 711.439 531.341L711.203 530.436Z"/><path fill="#73D6FD" d="M687.496 525.896L687.916 528.059C686.097 532.879 686.018 536.922 688.741 541.448L688.798 538.515C688.651 537.2 688.488 536.899 689.116 535.76C690.477 535.858 690.719 536.36 691.543 537.36C693.497 539.729 694.803 541.787 697.338 543.655L697.555 543.21C698.104 543.356 698.896 543.468 699.377 543.76L706.312 544.018C708.359 542.396 710.676 540.234 713.48 540.49C714.988 540.628 715.99 541.364 716.978 542.428L717.445 542.082C717.458 546.022 713.431 549.747 709.962 551.055C694.042 557.063 679.456 541.297 687.496 525.896Z"/><path fill="#0140BD" d="M687.496 525.896L687.916 528.059C686.097 532.879 686.018 536.922 688.741 541.448C690.242 544.333 693.177 546.507 696.226 547.542C701.363 549.285 707.721 548.8 712.512 546.239C714.294 545.287 715.726 544.002 716.978 542.428L717.445 542.082C717.458 546.022 713.431 549.747 709.962 551.055C694.042 557.063 679.456 541.297 687.496 525.896Z"/><path fill="#58CAFE" d="M688.798 538.515C688.651 537.2 688.488 536.899 689.116 535.76C690.477 535.858 690.719 536.36 691.543 537.36C693.497 539.729 694.803 541.787 697.338 543.655L697.555 543.21C698.104 543.356 698.896 543.468 699.377 543.76L698.686 544.542L698.895 545.046L702.186 545.488C702.002 545.671 701.85 545.894 701.632 546.036C700.332 546.885 698.611 546.763 697.223 546.259C693.611 544.949 690.347 542.017 688.798 538.515Z"/><path fill="#024CD0" d="M687.496 525.896C705.789 505.29 725.466 530.335 717.941 538.135C715.78 538.28 713.618 538.4 711.454 538.497C713.581 538.974 715.377 539.105 716.945 540.515L717.445 542.082L716.978 542.428C715.99 541.364 714.988 540.628 713.48 540.49C710.676 540.234 708.359 542.396 706.312 544.018L699.377 543.76C698.896 543.468 698.104 543.356 697.555 543.21C696.445 541.101 694.041 539.589 693.406 537.196C693.153 536.243 693.134 536.618 693.571 535.788C699.593 535.128 706.069 535.384 712.113 535.666C713.954 535.901 715.575 536.304 717.301 535.709C718.315 534.387 717.988 534.789 717.861 532.626C716.846 528.79 715.124 524.406 711.601 522.345C701.936 516.69 693.717 519.912 687.916 528.059L687.496 525.896ZM708.772 540.721C709.014 540.539 709.254 540.354 709.498 540.175C710.457 539.468 710.044 539.708 710.991 539.287L711.305 538.56C705.915 538.242 700.398 537.969 695.003 538.089C696.973 540.475 698.968 542.849 702.263 543.126C704.759 543.336 706.805 542.086 708.772 540.721Z"/><path fill="#0140BD" d="M711.439 531.341C708.174 531.434 696.194 532.286 694.255 530.859C694.042 525.334 704.672 520.05 711.203 530.436L711.439 531.341ZM706.622 530.516L708.392 530.464L708.828 529.88C707.211 528.244 704.232 528.025 702.001 528.007C701.076 528.005 700.151 528.03 699.227 528.082C698.105 528.569 697.322 528.632 696.723 529.744C699.017 530.839 703.935 530.399 706.622 530.516Z"/><path fill="#73D6FD" d="M711.203 530.436L712.883 528.538C716.564 528.315 715.133 532.39 717.394 533.379L717.861 532.626C717.988 534.789 718.315 534.387 717.301 535.709C715.575 536.304 713.954 535.901 712.113 535.666C712.156 532.99 712.721 532.946 711.439 531.341L711.203 530.436Z"/><path fill="#91E1FE" d="M275.553 524.395C279.176 520.573 283.341 518.277 288.706 518.139C293.427 518.01 297.995 519.815 301.352 523.136C304.107 525.858 309.543 534.262 305.63 537.815C303.258 538.252 301.58 538.439 299.172 538.65C293.37 537.631 287.422 538.275 281.581 537.607C283.305 539.778 285.714 542.934 288.68 543.267C292.94 543.745 295.428 539.102 299.058 538.768C300.267 538.993 302.855 539.187 303.659 540.182C303.949 540.54 304.107 540.865 304.324 541.26C304.488 543.863 304.058 545.187 302.235 547.155C299.91 549.667 296.514 551.288 293.248 552.143C288.894 552.424 285.872 552.499 281.735 550.783C280.895 550.27 280.07 549.732 279.263 549.17C271.007 543.33 269.847 532.492 275.553 524.395Z"/><path fill="#73D6FD" d="M275.553 524.395L276.091 525.687C274.028 529.39 273.637 531.211 273.464 535.5C275.963 534.634 277.187 534.767 279.687 535.454C281.411 539.135 282.78 541.433 286.113 543.943C288.518 543.931 290.942 543.985 293.342 543.852C295.399 542.343 297.112 540.577 299.687 540.178C301.274 540.571 302.114 541.07 303.377 542.098L304.324 541.26C304.488 543.863 304.058 545.187 302.235 547.155C299.91 549.667 296.514 551.288 293.248 552.143C288.894 552.424 285.872 552.499 281.735 550.783C280.895 550.27 280.07 549.732 279.263 549.17C271.007 543.33 269.847 532.492 275.553 524.395Z"/><path fill="#024CD0" d="M275.553 524.395L276.091 525.687C274.028 529.39 273.637 531.211 273.464 535.5C274.099 537.488 274.703 539.427 275.608 541.315C278.854 545.229 282.601 547.921 287.777 548.517C291.666 548.965 295.51 548.054 299.017 546.411C300.994 545.215 302.234 544.118 303.377 542.098L304.324 541.26C304.488 543.863 304.058 545.187 302.235 547.155C299.91 549.667 296.514 551.288 293.248 552.143C288.894 552.424 285.872 552.499 281.735 550.783C280.895 550.27 280.07 549.732 279.263 549.17C271.007 543.33 269.847 532.492 275.553 524.395Z"/><path fill="#024CD0" d="M275.553 524.395C279.176 520.573 283.341 518.277 288.706 518.139C293.427 518.01 297.995 519.815 301.352 523.136C304.107 525.858 309.543 534.262 305.63 537.815C303.258 538.252 301.58 538.439 299.172 538.65C293.37 537.631 287.422 538.275 281.581 537.607C283.305 539.778 285.714 542.934 288.68 543.267C292.94 543.745 295.428 539.102 299.058 538.768C300.267 538.993 302.855 539.187 303.659 540.182C303.949 540.54 304.107 540.865 304.324 541.26L303.377 542.098C302.114 541.07 301.274 540.571 299.687 540.178C297.112 540.577 295.399 542.343 293.342 543.852C290.942 543.985 288.518 543.931 286.113 543.943C282.78 541.433 281.411 539.135 279.687 535.454L304.756 535.526C305.505 531.81 303.224 527.972 301.166 525.041C295.682 516.311 282.489 518.758 276.091 525.687L275.553 524.395Z"/><path fill="#B8E9FA" d="M304.756 535.526C303.183 533.824 300.343 527.246 301.166 525.041C303.224 527.972 305.505 531.81 304.756 535.526Z"/><path fill="#024CD0" d="M287.402 524.59C288.633 524.525 290.001 524.499 291.215 524.728C293.611 525.179 295.956 526.838 297.378 528.766C297.492 529.971 297.421 529.933 296.688 530.914C294.835 531.898 292.672 531.501 290.637 531.398C288.237 531.387 283.248 532.297 281.435 530.781L281.362 529.737C282.994 526.886 284.388 525.896 287.402 524.59Z"/><path fill="#73D6FD" d="M585.453 521.849C602.474 511.397 618.174 528.158 612.331 537.575C610.443 538.6 609.156 538.111 607.203 538.509C601.934 538.424 596.449 538.769 591.243 538.093C590.765 538.031 590.282 538.018 589.801 537.993C590.461 539.779 591.817 540.979 593.53 541.776C594.875 542.402 596.349 542.841 597.761 543.291C600.561 542.168 603.457 539.152 606.318 538.948C606.588 538.928 606.856 538.899 607.125 538.875C608.944 539.153 610.067 539.75 611.63 540.702C611.773 548.397 603.745 552.228 597.004 552.227C580.599 552.225 573.467 532.897 585.453 521.849ZM602.125 530.52L603.242 530.204C601.943 528.526 600.676 528.374 598.624 528.104C596.376 527.808 593.869 527.653 591.632 528.022L590.427 529.512C591.007 530.31 591.441 530.235 592.378 530.364C595.396 530.781 599.008 530.389 602.125 530.52Z"/><path fill="#024CD0" d="M585.453 521.849C602.474 511.397 618.174 528.158 612.331 537.575C610.443 538.6 609.156 538.111 607.203 538.509C601.934 538.424 596.449 538.769 591.243 538.093C590.765 538.031 590.282 538.018 589.801 537.993C590.461 539.779 591.817 540.979 593.53 541.776C594.875 542.402 596.349 542.841 597.761 543.291C600.561 542.168 603.457 539.152 606.318 538.948C606.588 538.928 606.856 538.899 607.125 538.875C608.944 539.153 610.067 539.75 611.63 540.702L610.599 541.353C601.274 537.742 595.629 553.283 587.319 535.533C595.696 535.562 604.073 535.536 612.449 535.454C609.598 520.775 599.205 515.172 585.965 522.995L585.453 521.849Z"/><path fill="#024CD0" d="M585.453 521.849L585.965 522.995C567.727 542.889 602.159 558.605 610.599 541.353L611.63 540.702C611.773 548.397 603.745 552.228 597.004 552.227C580.599 552.225 573.467 532.897 585.453 521.849Z"/><path fill="#024CD0" d="M594.522 524.602C596.114 524.485 597.719 524.378 599.241 524.958C600.981 525.623 603.648 527.004 604.367 528.841C604.666 529.603 604.229 529.967 603.894 530.638C602.134 531.837 599.925 531.471 597.875 531.433C595.217 531.523 591.623 532.125 589.446 530.307C588.777 529.748 588.915 529.516 588.801 528.723C589.82 526.6 592.448 525.424 594.522 524.602ZM602.125 530.52L603.242 530.204C601.943 528.526 600.676 528.374 598.624 528.104C596.376 527.808 593.869 527.653 591.632 528.022L590.427 529.512C591.007 530.31 591.441 530.235 592.378 530.364C595.396 530.781 599.008 530.389 602.125 530.52Z"/><path fill="#024CD0" d="M450.485 534.539C450.498 538.271 451.479 547.354 448.575 550.025C447.682 550.845 446.316 551.201 445.133 550.996C443.618 550.734 442.515 549.634 441.806 548.334C439.446 544.007 439.682 524.936 441.113 519.856C442.497 518.706 446.515 518.508 448.265 518.862C448.725 518.956 448.845 519.065 449.198 519.285L449.601 521.081C455.478 520.962 459.993 513.67 467.171 520.473C473.231 526.217 472.364 536.131 472.35 543.796C472.346 545.841 472.429 548.887 471.059 550.536C470.528 551.175 469.454 551.211 468.657 551.226C466.996 551.256 465.65 550.911 464.204 550.133C462.223 547.853 462.434 540.986 462.63 537.978C462.669 537.385 462.713 536.851 462.858 536.278C462.773 534.693 462.842 532.671 462.016 531.276C461.085 529.704 459.203 528.62 457.441 528.285C455.731 527.971 453.971 528.447 452.652 529.58C450.986 530.985 450.746 532.504 450.485 534.539Z"/><path fill="#73D6FD" d="M464.575 520.679C468.085 522.011 470.618 526.2 470.589 529.848C471.034 533.685 471.464 543.792 470.602 547.429C468.685 545.381 470.275 542.762 468.709 540.514L467.377 540.486C465.957 540.084 465.158 539.833 464.008 538.849C464.032 535.805 464.074 534.443 463.545 531.371L462.858 536.278C462.773 534.693 462.842 532.671 462.016 531.276C461.085 529.704 459.203 528.62 457.441 528.285C455.731 527.971 453.971 528.447 452.652 529.58C450.986 530.985 450.746 532.504 450.485 534.539L449.001 532.695C449.556 528.388 450.511 526.739 454.166 524.417C459.168 520.532 454.373 521.515 463.025 521.958L463.125 521.555C460.576 521.332 458.969 521.187 456.419 520.652C459.42 520.324 461.886 521.103 464.575 520.679Z"/><path fill="#0140BD" d="M454.166 524.417C459.416 524.764 463.248 524.826 463.545 531.371L462.858 536.278C462.773 534.693 462.842 532.671 462.016 531.276C461.085 529.704 459.203 528.62 457.441 528.285C455.731 527.971 453.971 528.447 452.652 529.58C450.986 530.985 450.746 532.504 450.485 534.539L449.001 532.695C449.556 528.388 450.511 526.739 454.166 524.417Z"/><path fill="#91E1FE" d="M442.025 530.37C441.976 528.353 441.381 522.113 443.164 520.85C446.027 518.823 447.904 520.592 449.647 522.905C454.145 522.942 455.06 516.915 464.575 520.679C461.886 521.103 459.42 520.324 456.419 520.652C458.969 521.187 460.576 521.332 463.125 521.555L463.025 521.958C454.373 521.515 459.168 520.532 454.166 524.417C450.511 526.739 449.556 528.388 449.001 532.695C448.852 536.308 449.693 545.826 447.427 548.343C446.129 548.151 444.86 547.848 443.582 547.558L442.802 546.972C441.541 543.628 441.971 534.339 442.025 530.37Z"/><path fill="#58CAFE" d="M442.025 530.37L442.933 534.643C443.666 534.348 443.647 534.082 444.288 533.282L444.842 535.393L445.328 535.291C445.873 534.279 445.956 533.671 446.787 533.223C447 534.909 447.002 535.817 446.999 537.526C447.081 540.887 446.703 545.088 447.427 548.343C446.129 548.151 444.86 547.848 443.582 547.558L442.802 546.972C441.541 543.628 441.971 534.339 442.025 530.37Z"/><path fill="#50C2FE" d="M443.582 547.558L444.383 546.839C444.062 543.832 443.678 540.811 445.001 537.999C445.936 537.397 445.908 537.356 446.999 537.526C447.081 540.887 446.703 545.088 447.427 548.343C446.129 548.151 444.86 547.848 443.582 547.558Z"/><path fill="#50C2FE" d="M464.008 538.849C465.158 539.833 465.957 540.084 467.377 540.486L468.709 540.514C470.275 542.762 468.685 545.381 470.602 547.429C469.447 548.428 466.165 548.038 464.687 548.025C464.307 544.945 464.037 541.954 464.008 538.849Z"/><path fill="#73D6FD" d="M391.785 530.561C389.057 536.871 393.967 550.664 385.835 551.831C380.844 549.938 380.685 541.892 380.995 537.143C381.289 532.636 378.94 520.347 384.39 518.231C386.963 517.232 388.785 518.764 389.887 520.985L390.276 521.777C392.953 522.038 396.743 516.463 402.331 517.876C414.607 520.981 413.111 534.47 413.143 544.361C413.157 548.872 410.662 552.27 405.928 550.953C400.862 546.94 404.869 536.192 402.296 530.716C401.486 528.992 398.302 528.583 396.41 528.143C393.776 528.847 393.89 528.953 391.785 530.561Z"/><path fill="#024CD0" d="M391.785 530.561C389.057 536.871 393.967 550.664 385.835 551.831C380.844 549.938 380.685 541.892 380.995 537.143C381.289 532.636 378.94 520.347 384.39 518.231C386.963 517.232 388.785 518.764 389.887 520.985L390.276 521.777C392.953 522.038 396.743 516.463 402.331 517.876C414.607 520.981 413.111 534.47 413.143 544.361C413.157 548.872 410.662 552.27 405.928 550.953C400.862 546.94 404.869 536.192 402.296 530.716C401.486 528.992 398.302 528.583 396.41 528.143C397.727 527.725 397.8 527.747 399.203 527.871L402.112 528.124L403.007 527.341C404.181 528.637 404.387 530.085 404.631 531.813C405.09 536.529 405.503 541.249 405.871 545.973C406.245 543.139 406.588 537.383 407.807 535.26L408.74 534.753C409.028 534.866 409.78 535.129 410 535.284C409.946 532.876 409.842 530.47 409.688 528.067C405.633 521.368 404.064 523.31 398.51 519.995C394.85 520.314 393.176 521.736 390.057 523.678C387.843 521.21 388.582 520.09 385.08 519.728C383.563 520.341 383.541 520.226 382.517 521.455C382.005 524.486 381.959 545.306 383.368 547.601C385.437 548.192 386.988 548.043 389.122 548.028C389.138 542.9 388.725 533.13 390.473 528.694L391.785 530.561Z"/><path fill="#50C2FE" d="M404.631 531.813C405.09 536.529 405.503 541.249 405.871 545.973C406.245 543.139 406.588 537.383 407.807 535.26L408.74 534.753C409.028 534.866 409.78 535.129 410 535.284C409.97 538.387 409.162 545.517 410.808 547.957C408.478 547.995 407.799 548.368 405.905 547.368C403.34 543.752 404.443 536.607 404.631 531.813Z"/><path fill="#91E1FE" d="M398.51 519.995C406.938 519.388 411.29 524.551 411.51 532.666C411.598 535.885 411.804 545.038 410.808 547.957C409.162 545.517 409.97 538.387 410 535.284C409.946 532.876 409.842 530.47 409.688 528.067C405.633 521.368 404.064 523.31 398.51 519.995Z"/><path fill="#0140BD" d="M390.473 528.694C390.638 528.502 390.806 528.314 390.978 528.129C394.618 524.224 399.079 523.423 403.007 527.341L402.112 528.124L399.203 527.871C397.8 527.747 397.727 527.725 396.41 528.143C393.776 528.847 393.89 528.953 391.785 530.561L390.473 528.694Z"/><path fill="#0140BD" d="M550.769 520.216C556.313 517.811 561.294 517.129 567.022 519.434C571.114 521.081 575.669 524.62 574.417 529.604C574.145 530.688 573.229 531.409 572.168 531.726C565.656 533.027 558.346 524.35 553.035 531.691C552.009 533.109 551.981 535.191 552.528 536.883C553.274 539.224 554.97 541.144 557.201 542.172C558.185 542.628 560.094 542.544 561.197 542.523C564.931 540.943 568.88 534.848 573.52 538.571C576.029 542.707 572.188 547.949 568.68 550.144C565.322 552.246 559.151 552.715 555.301 551.747C550.67 550.537 546.72 547.515 544.34 543.362C539.685 535.104 542.424 524.862 550.769 520.216Z"/><path fill="#73D6FD" d="M551.623 521.124C557.668 518.667 574.654 518.937 572.774 528.261C569.225 532.404 559.222 520.24 553.496 526.908C550.849 529.991 550.611 533.15 550.821 536.815L549.976 537.347C550.011 537.499 550.047 537.651 550.08 537.804C550.63 540.382 550.235 542.551 551.018 545.086C551.167 545.566 551.049 545.728 551.09 546.178C551.095 546.233 551.127 546.281 551.146 546.333C540.531 539.116 541.317 528.171 551.623 521.124Z"/><path fill="#73D6FD" d="M551.146 546.333C551.127 546.281 551.095 546.233 551.09 546.178C551.049 545.728 551.167 545.566 551.018 545.086C550.235 542.551 550.63 540.382 550.08 537.804C550.047 537.651 550.011 537.499 549.976 537.347L550.821 536.815C552.092 539.702 553.431 542.238 556.568 543.365C558.205 543.954 559.908 543.952 561.627 543.966L561.66 543.67C561.923 543.592 562.188 543.522 562.448 543.437C566.1 542.244 566.316 538.523 570.976 539.078C572.134 539.862 572.128 539.904 572.549 541.244C572.187 543.53 571.24 544.92 569.339 546.269C565.823 548.765 561.238 548.818 557.11 548.397C555.043 547.906 553.118 547.109 551.146 546.333Z"/><path fill="#91E1FE" d="M551.146 546.333C551.127 546.281 551.095 546.233 551.09 546.178C551.049 545.728 551.167 545.566 551.018 545.086C550.235 542.551 550.63 540.382 550.08 537.804C550.047 537.651 550.011 537.499 549.976 537.347L550.821 536.815C552.092 539.702 553.431 542.238 556.568 543.365C558.205 543.954 559.908 543.952 561.627 543.966L562.492 544.768C560.721 545.921 558.257 544.559 556.341 545.361C556.498 545.979 556.654 546.594 556.795 547.216L558.489 547.787C557.587 548.423 558.059 548.25 557.11 548.397C555.043 547.906 553.118 547.109 551.146 546.333Z"/><defs><linearGradient id="gradient_22" gradientUnits="userSpaceOnUse" x1="635.77698" y1="542.41351" x2="645.17682" y2="522.34863"><stop offset="0" stop-color="#46C2FF"/><stop offset="1" stop-color="#89DFFE"/></linearGradient></defs><path fill="url(#gradient_22)" d="M628.508 522.214L629.336 522.095C632.515 518.736 636.286 517.677 640.786 518.183C653.853 519.653 651.643 537.657 651.516 546.899C650.874 548.648 650.226 549.839 648.511 550.714C647.494 551.233 646.378 551.478 645.245 551.186C643.878 550.832 643.174 549.965 642.566 548.766C642.472 548.581 642.412 548.381 642.335 548.188C641.54 542.827 643.662 535.326 640.755 530.551C639.893 529.136 638.741 528.478 637.129 528.231C635.438 527.973 632.774 528.604 631.513 529.796C628.88 532.283 629.475 537.593 629.398 540.892C629.511 544.397 629.861 547.348 627.724 550.198C625.267 551.527 622.538 551.182 620.661 548.993C619.116 541.621 620.193 528.702 620.377 520.906C620.409 519.568 626.875 515.87 628.504 521.52L628.508 522.214Z"/><path fill="#91E1FE" d="M629.398 540.892C629.511 544.397 629.861 547.348 627.724 550.198C625.267 551.527 622.538 551.182 620.661 548.993C619.116 541.621 620.193 528.702 620.377 520.906C620.409 519.568 626.875 515.87 628.504 521.52L628.508 522.214L628.561 524.936L628.994 526.052C629.57 526.09 629.981 526.119 630.558 526.194L630.598 526.563C629.189 528.238 628.444 529.405 628.465 531.733C628.574 533.134 629.002 540.221 629.398 540.892Z"/><path fill="#024CD0" d="M629.398 540.892C629.511 544.397 629.861 547.348 627.724 550.198C625.267 551.527 622.538 551.182 620.661 548.993C619.116 541.621 620.193 528.702 620.377 520.906C620.409 519.568 626.875 515.87 628.504 521.52C626.026 520.448 622.368 519.12 621.632 522.844C620.609 528.026 621.318 534.461 621.517 539.743C621.396 542.045 620.846 544.936 621.888 547.042C623.357 548.23 624.668 548.134 626.511 548.289C628.285 546.744 627.695 536.045 628.465 531.733C628.574 533.134 629.002 540.221 629.398 540.892Z"/><path fill="#50C2FE" d="M621.517 539.743L621.803 540.694C622.373 542.653 622.235 544.562 623.06 546.463L622.966 545.766C622.57 542.715 622.211 538.99 623.37 536.084L624.254 535.564C624.909 535.803 625.403 535.744 625.657 536.458C626.904 539.966 625.509 544.593 626.511 548.289C624.668 548.134 623.357 548.23 621.888 547.042C620.846 544.936 621.396 542.045 621.517 539.743Z"/><path fill="#0140BD" d="M630.598 526.563C639.651 521.745 643.709 527.312 643.656 536.643C643.646 538.581 643.698 542.456 643.162 544.189C643.657 545.895 643.702 546.599 645.018 547.839C646.73 548.328 648.294 548.055 650.041 547.865L651.516 546.899C650.874 548.648 650.226 549.839 648.511 550.714C647.494 551.233 646.378 551.478 645.245 551.186C643.878 550.832 643.174 549.965 642.566 548.766C642.472 548.581 642.412 548.381 642.335 548.188C641.54 542.827 643.662 535.326 640.755 530.551C639.893 529.136 638.741 528.478 637.129 528.231C635.438 527.973 632.774 528.604 631.513 529.796C628.88 532.283 629.475 537.593 629.398 540.892C629.002 540.221 628.574 533.134 628.465 531.733C628.444 529.405 629.189 528.238 630.598 526.563Z"/><path fill="#0F62DF" d="M628.508 522.214L629.336 522.095C632.515 518.736 636.286 517.677 640.786 518.183C653.853 519.653 651.643 537.657 651.516 546.899L650.041 547.865C650.389 536.407 653.166 516.186 634.713 520.208C631.35 520.941 630.462 522.167 628.561 524.936L628.508 522.214Z"/><path fill="#73D6FD" d="M663.641 512.637C665.998 512.28 668.183 511.801 670.549 512.318C671.619 513.162 671.675 513.249 671.802 514.678C671.832 515.015 671.812 515.354 671.836 515.691C671.907 516.675 672.091 517.506 672.813 518.236C675.175 520.627 680.02 517.094 680.536 521.543C680.778 523.63 680.197 525.899 679.818 527.945L672.518 528.005C672.49 532.436 671.891 537.393 674.203 541.34C675.89 542.366 677.142 541.964 679 541.626C680.246 542.375 680.13 542.64 680.575 544.05C680.63 544.221 680.695 544.389 680.739 544.564C681.196 546.337 681.22 548.257 680.089 549.797C678.96 551.334 677.013 552.041 675.193 552.301C672.177 552.732 668.757 551.915 666.332 550.05C664.046 548.292 663.59 546.162 663.135 543.438C662.954 538.14 662.878 532.839 662.908 527.537C661.028 527.572 659.43 527.886 657.751 526.962C656.814 524.922 656.794 522.397 657.53 520.293C658.302 519.538 658.763 519.458 659.78 519.29C661.121 519.068 661.61 518.74 662.622 517.859C663.009 516.123 663.339 514.389 663.641 512.637Z"/><path fill="#024CD0" d="M663.641 512.637C665.998 512.28 668.183 511.801 670.549 512.318C671.619 513.162 671.675 513.249 671.802 514.678C671.832 515.015 671.812 515.354 671.836 515.691C671.907 516.675 672.091 517.506 672.813 518.236C675.175 520.627 680.02 517.094 680.536 521.543C680.778 523.63 680.197 525.899 679.818 527.945L672.518 528.005C672.49 532.436 671.891 537.393 674.203 541.34C675.89 542.366 677.142 541.964 679 541.626C680.246 542.375 680.13 542.64 680.575 544.05L679.992 544.456L679.882 544.195C679.727 545.313 679.588 546.432 679.466 547.554C679.201 545.954 679.323 544.439 678.134 543.298C676.619 543.524 675.282 543.701 673.742 543.552C672.331 542.872 671.939 541.929 671.242 540.614C670.819 536.607 671.164 532.154 670.746 527.745C670.898 526.31 670.731 526.807 671.409 525.53C673.473 524.625 675.654 525.111 677.994 525.313C678.153 525.548 676.555 523.089 677.122 523.727C674.912 521.242 673.86 524.104 669.373 520.399C669.035 519.159 668.814 515.875 668.286 513.646C666.174 514.003 665.715 513.685 664.522 514.896L664.541 515.797C663.051 521.641 662.761 518.339 658.608 520.819C658.18 522.496 657.876 523.056 658.386 524.715C660.949 525.924 660.503 524.022 663.603 525.4C663.924 527.491 664.597 540.961 664.337 542.86L663.135 543.438C662.954 538.14 662.878 532.839 662.908 527.537C661.028 527.572 659.43 527.886 657.751 526.962C656.814 524.922 656.794 522.397 657.53 520.293C658.302 519.538 658.763 519.458 659.78 519.29C661.121 519.068 661.61 518.74 662.622 517.859C663.009 516.123 663.339 514.389 663.641 512.637Z"/><path fill="#B8E9FA" d="M668.286 513.646L670.142 513.77C671.537 515.563 671.062 517.945 670.991 520.42L675.752 520.378C677.281 520.355 677.403 520.29 678.68 521.085C679.465 522.711 679.178 522.393 678.988 524.493L677.994 525.313C678.153 525.548 676.555 523.089 677.122 523.727C674.912 521.242 673.86 524.104 669.373 520.399C669.035 519.159 668.814 515.875 668.286 513.646Z"/><path fill="#0140BD" d="M663.135 543.438L664.337 542.86C664.835 544.243 665.321 546.009 666.678 546.803C666.968 546.972 667.296 547.067 667.605 547.2C668.513 546.803 668.227 546.8 669.067 546.819C670.025 546.841 670.971 546.939 671.933 546.909C675.099 546.811 676.104 545.453 678.134 543.298C679.323 544.439 679.201 545.954 679.466 547.554C679.588 546.432 679.727 545.313 679.882 544.195L679.992 544.456L680.575 544.05C680.63 544.221 680.695 544.389 680.739 544.564C681.196 546.337 681.22 548.257 680.089 549.797C678.96 551.334 677.013 552.041 675.193 552.301C672.177 552.732 668.757 551.915 666.332 550.05C664.046 548.292 663.59 546.162 663.135 543.438Z"/><path fill="#91E1FE" d="M678.134 543.298C679.323 544.439 679.201 545.954 679.466 547.554C675.6 548.877 671.385 548.751 667.605 547.2C668.513 546.803 668.227 546.8 669.067 546.819C670.025 546.841 670.971 546.939 671.933 546.909C675.099 546.811 676.104 545.453 678.134 543.298Z"/><path fill="#91E1FE" d="M664.541 515.797L664.522 514.896C665.715 513.685 666.174 514.003 668.286 513.646C668.814 515.875 669.035 519.159 669.373 520.399C667.785 520.583 666.479 520.347 665.025 519.697L665.019 519.913C663.858 518.249 664.302 518.451 664.541 515.797Z"/><path fill="#B8E9FA" d="M671.242 540.614L670.937 541.219L670.325 541.079C669.243 538.512 668.703 527.489 669.615 525.136L670.231 525.385L670.746 527.745C671.164 532.154 670.819 536.607 671.242 540.614Z"/><path fill="#024CD0" d="M370.364 518.073C371.336 518.077 372.883 518.028 373.789 518.376C374.776 518.756 375.223 519.469 375.437 520.477C375.923 522.771 375.598 526.254 374.257 528.21C372.762 528.994 372.041 528.837 370.372 528.804C368.958 528.776 367.545 528.624 366.385 529.629C362.373 533.109 364.438 541.023 364.094 545.621C363.959 547.428 363.488 549.186 361.961 550.332C360.58 551.369 358.726 551.051 357.112 550.944C356.398 550.442 355.639 549.924 355.172 549.159C353.317 546.121 353.758 524.409 354.844 520.409C356.006 519.242 357.347 518.038 359.115 518.058C361.038 518.079 362.168 519.538 363.341 520.839L363.78 521.335C365.956 519.785 367.655 518.542 370.364 518.073Z"/><path fill="#73D6FD" d="M363.38 523.189C365.914 520.977 370.802 517.88 374.05 520.244C374.627 521.63 374.388 521.93 374.067 523.418L373.601 524.709C368.165 525.724 365.928 524.497 363.489 530.476L363.117 531.365L362.884 531.942C362.951 536.677 362.986 541.739 362.313 546.447C361.925 549.161 357.941 548.444 356.396 547.406C355.133 543.389 355.436 530.229 355.919 525.75C355.831 523.804 355.397 521.688 356.942 520.406C359.732 519.796 361.883 519.98 362.832 522.983L363.38 523.189Z"/><path fill="#91E1FE" d="M363.38 523.189C365.914 520.977 370.802 517.88 374.05 520.244C374.627 521.63 374.388 521.93 374.067 523.418L373.601 524.709C368.165 525.724 365.928 524.497 363.489 530.476L363.117 531.365L362.884 531.942L362.462 531.093C362.954 529.419 362.89 529.496 362.73 527.734L362.547 527.991C362.282 525.364 362.281 524.207 361.212 521.771C359.773 521.24 359.301 521.614 357.549 521.887C356.163 523.789 356.402 528.369 356.357 530.913L355.919 525.75C355.831 523.804 355.397 521.688 356.942 520.406C359.732 519.796 361.883 519.98 362.832 522.983L363.38 523.189Z"/><path fill="#73D6FD" d="M363.38 523.189C365.914 520.977 370.802 517.88 374.05 520.244C374.627 521.63 374.388 521.93 374.067 523.418L373.476 522.851C370.696 523.264 366.303 523.181 363.38 523.189Z"/><path fill="#91E1FE" d="M734.632 522.913C736.727 518.728 742.988 516.505 746.95 519.322C747.119 521.702 746.911 525.457 746.33 527.757C742.897 530.538 736.875 525.126 735.973 535.488C735.623 539.502 736.821 548.021 733.609 550.713C731.926 552.123 728.956 551.248 727.266 549.982C726.674 548.735 726.543 548.632 726.198 547.322C726.083 545.803 725.999 544.282 725.946 542.759C725.801 538.476 725.218 522.159 727.779 519.422C729.676 518.833 732.533 518.393 734.344 519.312L734.417 521.053L734.632 522.913Z"/><path fill="#024CD0" d="M734.632 522.913C736.727 518.728 742.988 516.505 746.95 519.322C747.119 521.702 746.911 525.457 746.33 527.757C742.897 530.538 736.875 525.126 735.973 535.488C735.623 539.502 736.821 548.021 733.609 550.713C731.926 552.123 728.956 551.248 727.266 549.982C726.674 548.735 726.543 548.632 726.198 547.322L727.387 547.345C729.287 548.517 731.51 547.738 733.6 548.189C736.766 541.773 731.067 531.881 738.217 525.799L737.505 524.755L736.19 524.971L735.477 523.723L734.632 522.913Z"/><path fill="#91E1FE" d="M735.477 523.723C737.919 519.895 743.499 518.172 745.933 522.697C745.855 524.209 746.108 523.506 744.855 524.749C742.244 525.457 740.64 525.162 738.217 525.799L737.505 524.755L736.19 524.971L735.477 523.723Z"/><path fill="#58CAFE" d="M727.387 547.345C727.226 543.275 726.947 539.178 727.316 535.115L727.869 536.176C729.342 536.136 730.776 536.073 732.238 535.888C733.457 537.46 733.309 539.48 733.072 541.37C732.844 543.184 732.691 545.673 731.853 547.274L733.6 548.189C731.51 547.738 729.287 548.517 727.387 547.345Z"/><path fill="#024CD0" d="M726.198 547.322C726.083 545.803 725.999 544.282 725.946 542.759C725.801 538.476 725.218 522.159 727.779 519.422C729.676 518.833 732.533 518.393 734.344 519.312L734.417 521.053C731.426 520.539 730.481 520.696 727.551 520.966L727.316 535.115C726.947 539.178 727.226 543.275 727.387 547.345L726.198 547.322Z"/><path fill="#024CD0" d="M255.308 510.608C256.588 510.473 257.97 510.239 259.253 510.302C260.574 510.367 261.125 510.866 262.004 511.766C263.816 518.114 263.525 539.057 262.827 546.099C262.581 548.589 262.124 549.288 260.269 550.839C259.218 551.118 258.323 551.233 257.237 551.263C255.441 550.639 254.39 549.055 253.214 547.643C252.82 537.858 252.673 527.864 252.885 518.075C252.957 514.74 252.804 512.993 255.308 510.608Z"/><path fill="#91E1FE" d="M254.442 512.443L260.783 512.475C261.911 515.936 261.52 541.328 261.34 546.481C261.106 546.797 260.754 547.323 260.484 547.566C259.695 547.856 258.541 548.17 257.7 548.13C256.879 548.091 256.291 547.979 255.712 547.389C254.118 545.766 254.518 543.325 254.592 541.241C254.46 531.642 254.41 522.042 254.442 512.443Z"/><path fill="#50C2FE" d="M259.994 534.453C260.027 536.985 260.717 543.464 260.048 545.531C259.792 546.322 258.911 546.475 259.348 547.337L260.484 547.566C259.695 547.856 258.541 548.17 257.7 548.13C256.879 548.091 256.291 547.979 255.712 547.389C254.118 545.766 254.518 543.325 254.592 541.241C255.772 540.371 255.915 539.927 256.13 538.421C256.204 537.904 256.218 537.114 256.422 536.636C256.994 535.295 258.753 534.971 259.994 534.453Z"/><path fill="#B8E9FA" d="M260.783 512.475C261.911 515.936 261.52 541.328 261.34 546.481C261.106 546.797 260.754 547.323 260.484 547.566L259.348 547.337C258.911 546.475 259.792 546.322 260.048 545.531C260.717 543.464 260.027 536.985 259.994 534.453C260.148 531.348 260.507 516.116 259.592 513.785L259.379 513.262L260.783 512.475Z"/><path fill="#024CD0" d="M424.055 518.679C425.269 518.56 426.528 518.405 427.75 518.411C428.992 518.417 429.797 518.841 430.665 519.711C432.433 524.588 432.067 541.216 431.446 546.853C431.197 549.116 430.704 549.642 429.036 551.033C427.516 551.131 424.815 551.493 423.662 550.216C420.859 547.112 421.868 535.648 421.868 531.57C421.867 527.442 420.99 521.748 424.055 518.679Z"/><path fill="#73D6FD" d="M423.417 522.258C423.444 521.965 423.709 521.297 423.818 520.983C425.409 520.207 427.259 520.495 429.082 520.572C430.121 521.47 430.188 521.535 430.163 523.458C430.093 528.761 430.664 543.063 429.683 547.442C428.228 548.229 425.237 548.035 423.435 548.06C422.829 543.606 422.828 526.569 423.417 522.258Z"/><path fill="#50C2FE" d="M423.435 548.06C422.829 543.606 422.828 526.569 423.417 522.258C423.597 526.946 423.69 531.637 423.694 536.329C425.826 536.101 426.877 535.949 428.992 536.069C428.979 539.03 428.242 545 429.683 547.442C428.228 548.229 425.237 548.035 423.435 548.06Z"/><path fill="#B8E9FA" d="M429.082 520.572C430.121 521.47 430.188 521.535 430.163 523.458C430.093 528.761 430.664 543.063 429.683 547.442C428.242 545 428.979 539.03 428.992 536.069C428.968 533.725 428.779 522.737 429.082 520.572Z"/><path fill="#0F62DF" fill-opacity="0.086274512" d="M500.596 495.123C501.687 495.108 504.661 495.556 506.072 495.619C511.717 495.871 515.622 495.038 521.105 493.781L521.035 495.141C519.39 495.386 519.121 495.111 518.248 496.061L518.86 496.83C520.703 496.647 520.97 496.661 522.23 495.081C524.086 495.186 523.171 494.933 524.896 496.359L525.231 497.272C521.17 500.327 497.155 500.8 493.696 496.475L493.862 496.107C496.5 496.058 498.074 495.706 500.596 495.123Z"/><path fill="#0F62DF" fill-opacity="0.06666667" d="M322.501 551.294C325.965 552.139 328.301 552.233 331.763 551.342L334.069 552.687C333.357 553.546 332.635 554.476 331.775 555.192C330.277 556.44 328.424 556.659 326.555 556.382C324.521 556.081 321.677 555.033 320.507 553.239C320.067 552.563 320.305 552.182 320.413 551.438L322.501 551.294Z"/><path fill="#0F62DF" fill-opacity="0.090196081" d="M281.735 550.783C285.872 552.499 288.894 552.424 293.248 552.143C293.452 552.186 294.31 552.361 294.481 552.431C294.672 552.51 294.836 552.645 295.013 552.753L295.77 552.772C295.355 552.807 294.543 552.861 294.169 552.953C292.347 553.397 291.091 553.555 289.186 553.568C288.169 554.308 288.094 554.278 287.796 555.486L288.802 556.197C288.509 556.253 288.218 556.316 287.923 556.365C285.997 556.692 283.798 556.157 282.258 554.929C281.089 553.996 280.942 553.274 280.707 551.857L281.735 550.783Z"/></svg>